<?xml version="1.0" standalone="no"?>
<!DOCTYPE svg PUBLIC "-//W3C//DTD SVG 20010904//EN"
 "http://www.w3.org/TR/2001/REC-SVG-20010904/DTD/svg10.dtd">
<svg version="1.0" xmlns="http://www.w3.org/2000/svg"
 width="888.000000pt" height="888.000000pt" viewBox="0 0 888.000000 888.000000"
 preserveAspectRatio="xMidYMid meet">
<metadata>
Created by potrace 1.14, written by Peter Selinger 2001-2017
</metadata>
<g transform="translate(0.000000,888.000000) scale(0.100000,-0.100000)"
fill="#000000" stroke="none">
<path d="M4448 8875 c-1 -1 -41 -5 -88 -9 -87 -7 -126 -11 -215 -21 -66 -8
-95 -13 -125 -19 -14 -2 -42 -7 -63 -10 -21 -4 -73 -13 -115 -22 -81 -17 -82
-17 -152 -35 -25 -6 -52 -13 -60 -14 -8 -1 -22 -5 -30 -8 -13 -5 -148 -44
-175 -51 -53 -12 -318 -108 -385 -139 -25 -11 -51 -22 -58 -23 -31 -6 -368
-180 -492 -254 -134 -81 -322 -204 -371 -244 -14 -12 -40 -32 -59 -46 -146
-110 -269 -219 -445 -396 -168 -168 -200 -204 -320 -354 -55 -69 -103 -126
-107 -128 -5 -2 -8 -10 -8 -18 0 -8 -4 -14 -10 -14 -5 0 -10 -6 -10 -14 0 -7
-6 -19 -14 -25 -7 -6 -42 -55 -77 -109 -70 -105 -76 -115 -115 -182 -15 -25
-35 -57 -46 -72 -34 -51 -221 -432 -243 -498 -1 -3 -7 -16 -12 -30 -41 -94
-139 -369 -149 -415 -1 -5 -9 -35 -18 -66 -9 -31 -19 -65 -21 -75 -2 -11 -14
-59 -26 -109 -21 -93 -22 -97 -33 -155 -3 -19 -8 -45 -10 -56 -2 -12 -7 -39
-10 -60 -4 -22 -11 -64 -16 -94 -9 -58 -20 -141 -25 -200 -2 -19 -7 -78 -12
-130 -10 -116 -10 -551 0 -675 8 -101 11 -123 33 -292 12 -92 55 -308 90 -453
22 -90 95 -329 117 -382 8 -20 13 -39 9 -42 -3 -3 -1 -6 5 -6 5 0 10 -7 10
-15 0 -8 8 -34 17 -57 22 -53 33 -80 36 -93 1 -5 7 -19 13 -30 6 -11 12 -22
12 -25 7 -32 165 -352 230 -465 49 -87 179 -290 187 -293 4 -2 8 -8 8 -14 0
-8 20 -38 63 -93 143 -187 170 -220 218 -277 137 -161 345 -368 488 -488 23
-19 54 -45 69 -58 15 -13 54 -44 87 -70 33 -25 62 -50 63 -54 2 -4 9 -8 17 -8
7 0 18 -7 25 -16 15 -17 323 -224 335 -224 4 0 19 -8 33 -19 110 -78 488 -259
702 -336 41 -14 84 -30 95 -35 17 -7 91 -32 105 -35 3 -1 25 -7 50 -15 25 -7
50 -14 56 -16 7 -1 43 -11 80 -22 64 -19 108 -31 143 -38 7 -1 34 -8 60 -14
25 -6 57 -13 71 -15 14 -3 36 -7 50 -10 33 -6 73 -13 129 -21 25 -4 55 -8 66
-10 11 -3 43 -7 70 -9 28 -3 68 -7 90 -10 166 -19 574 -26 725 -11 41 4 98 9
125 11 67 6 134 13 170 19 17 2 50 8 75 11 25 4 54 9 65 11 11 2 34 6 50 9 31
6 64 12 103 20 12 3 32 7 45 10 12 2 36 8 52 12 17 4 35 8 40 9 6 1 12 3 15 4
3 1 12 3 20 5 65 13 391 115 465 146 17 6 35 13 40 15 24 6 209 86 305 133
194 93 287 148 575 341 31 21 75 53 89 65 6 6 40 32 76 60 36 27 76 59 90 71
192 163 360 328 482 474 98 116 248 315 248 329 0 5 4 11 8 13 11 4 72 94 72
105 0 5 8 18 18 29 23 26 40 53 53 84 6 14 16 32 24 40 13 15 152 289 176 347
8 18 17 33 20 33 3 0 6 7 6 15 0 8 -2 14 -3 12 -3 -3 -75 -100 -131 -176 -10
-13 -22 -29 -28 -35 -5 -6 -22 -27 -36 -46 -15 -19 -36 -46 -48 -60 -12 -14
-43 -50 -69 -80 -59 -69 -369 -379 -446 -445 -32 -27 -63 -54 -70 -60 -24 -21
-112 -91 -138 -110 -277 -199 -547 -359 -788 -468 -128 -57 -167 -74 -270
-112 -107 -40 -329 -110 -375 -119 -11 -2 -49 -12 -85 -21 -36 -9 -75 -19 -87
-21 -52 -9 -70 -13 -115 -23 -26 -6 -68 -13 -95 -16 -26 -3 -55 -8 -63 -10 -8
-3 -42 -7 -75 -11 -33 -3 -73 -8 -90 -10 -151 -19 -573 -25 -730 -11 -44 4
-102 9 -130 12 -27 2 -63 6 -80 9 -16 3 -48 7 -70 11 -22 3 -53 8 -70 12 -16
3 -41 7 -55 9 -24 3 -41 6 -105 21 -16 3 -37 7 -45 9 -8 1 -26 5 -40 9 -14 3
-36 8 -50 11 -14 2 -32 7 -40 11 -8 3 -22 7 -30 9 -19 3 -140 39 -160 47 -8 3
-53 18 -100 33 -47 14 -89 29 -95 33 -5 3 -15 6 -20 7 -6 1 -32 11 -57 23 -26
11 -50 21 -53 21 -7 0 -115 50 -245 113 -90 44 -303 164 -350 197 -16 11 -31
20 -34 20 -7 0 -105 69 -124 87 -7 7 -17 13 -21 13 -4 0 -17 8 -29 18 -11 10
-33 27 -47 38 -15 10 -35 26 -44 34 -10 8 -33 26 -51 40 -33 25 -59 47 -174
150 -122 109 -328 327 -401 425 -17 21 -36 46 -43 55 -8 8 -33 42 -58 75 -24
33 -47 65 -51 70 -118 156 -393 653 -393 710 0 8 -4 15 -10 15 -5 0 -9 3 -8 8
1 4 -4 21 -11 37 -45 112 -116 321 -126 372 -10 45 -10 48 -17 58 -3 6 -13 44
-23 85 -9 41 -19 83 -21 92 -10 41 -13 59 -20 105 -5 26 -8 50 -9 53 -1 3 -4
19 -8 35 -3 17 -9 53 -12 80 -3 28 -9 66 -11 85 -3 19 -7 55 -9 80 -2 25 -7
77 -10 115 -18 209 -2 632 30 805 3 14 7 41 10 60 2 19 7 46 9 60 3 14 7 42
10 64 4 21 8 41 10 45 3 3 7 26 11 50 3 24 10 53 14 65 5 11 9 26 10 31 9 61
132 454 151 480 3 6 15 33 25 60 10 28 36 88 58 135 22 47 41 87 42 90 1 7 51
102 74 144 11 18 24 42 29 52 28 52 108 181 119 192 7 7 13 18 13 23 0 6 6 17
13 24 27 31 37 44 37 50 0 8 156 217 192 257 12 14 48 56 78 92 63 75 276 287
364 361 32 28 66 57 75 66 9 8 45 37 81 64 36 27 67 53 68 57 2 4 10 8 17 8 7
0 15 4 17 8 5 13 177 129 293 197 55 33 102 63 103 67 2 5 10 8 17 8 8 0 36
13 62 28 43 25 227 113 308 147 58 24 165 67 175 70 3 1 71 23 151 48 80 26
154 49 165 51 10 3 51 12 89 21 39 10 79 19 90 21 11 2 39 8 63 14 23 5 59 13
80 16 20 3 62 9 92 14 194 32 359 44 620 44 193 0 360 -8 440 -20 52 -8 88
-12 159 -18 35 -4 68 -9 73 -12 6 -4 27 -9 47 -11 32 -5 232 -47 271 -57 8 -3
44 -12 80 -21 68 -18 260 -79 295 -95 11 -5 31 -12 45 -15 26 -8 53 -18 132
-54 26 -11 50 -21 52 -21 3 0 49 -21 103 -47 54 -26 100 -47 103 -48 5 -1 20
-9 105 -55 28 -15 77 -42 110 -60 33 -18 79 -45 102 -61 23 -16 44 -29 47 -29
2 0 46 -28 97 -62 51 -35 99 -67 107 -73 9 -5 23 -15 31 -22 9 -7 32 -25 53
-40 20 -15 48 -37 63 -47 28 -21 43 -33 114 -94 250 -213 507 -483 685 -722
31 -41 63 -84 72 -95 8 -11 26 -35 40 -54 13 -19 24 -32 24 -28 0 9 -115 254
-129 277 -6 8 -20 35 -32 60 -13 25 -34 63 -48 85 -14 22 -34 55 -44 74 -11
19 -49 80 -86 135 -36 55 -70 106 -76 115 -17 25 -22 32 -104 137 -135 174
-168 210 -316 359 -132 132 -192 188 -275 255 -30 24 -62 51 -71 60 -8 8 -32
26 -52 40 -20 14 -37 28 -37 33 0 4 -6 7 -14 7 -7 0 -19 7 -26 15 -6 8 -37 31
-68 51 -32 21 -59 40 -62 44 -8 10 -260 164 -335 205 -139 76 -293 149 -304
145 -2 -1 -7 2 -10 7 -3 5 -55 28 -116 52 -60 24 -119 47 -130 52 -20 8 -171
59 -190 64 -5 1 -17 5 -25 8 -81 33 -487 123 -639 142 -23 3 -55 7 -70 9 -14
3 -55 8 -91 11 -36 4 -83 9 -105 11 -47 5 -602 14 -607 9z"/>
<path d="M5035 7852 c-1 -1 -38 -5 -81 -7 -44 -3 -92 -7 -109 -10 -16 -2 -50
-6 -75 -8 -25 -3 -61 -8 -80 -11 -19 -3 -46 -8 -60 -10 -14 -2 -43 -7 -65 -11
-22 -4 -47 -9 -56 -10 -8 -2 -44 -10 -80 -19 -35 -9 -73 -18 -84 -20 -39 -8
-271 -85 -345 -114 -121 -49 -357 -159 -370 -173 -3 -3 -25 -16 -50 -30 -75
-42 -90 -51 -203 -127 -60 -40 -116 -79 -124 -87 -8 -8 -17 -15 -21 -15 -4 0
-20 -13 -37 -28 -16 -15 -52 -45 -80 -67 -123 -98 -307 -286 -416 -425 -24
-30 -46 -57 -49 -60 -4 -3 -31 -41 -61 -85 -30 -44 -57 -82 -60 -85 -7 -7 -99
-162 -130 -220 -13 -25 -27 -46 -31 -48 -5 -2 -8 -8 -8 -13 0 -5 -20 -50 -44
-99 -42 -86 -50 -123 -13 -60 10 16 23 35 30 42 7 7 34 42 62 78 27 36 54 70
60 76 5 6 28 33 50 60 47 57 268 280 341 344 69 61 90 79 159 130 33 25 62 47
65 50 13 15 240 160 250 160 5 0 10 5 10 12 0 6 3 9 6 6 3 -4 20 3 38 15 91
62 505 248 549 247 4 0 21 7 37 15 16 8 31 15 32 14 2 -1 30 6 63 16 66 19
299 71 355 79 19 2 58 8 85 12 28 3 59 8 70 11 113 22 607 21 715 -2 14 -3 43
-7 65 -10 76 -7 130 -16 145 -21 8 -4 27 -8 43 -10 114 -15 436 -117 587 -185
89 -41 266 -130 300 -151 19 -12 37 -22 40 -23 23 -2 310 -209 416 -300 77
-66 262 -252 311 -312 21 -27 41 -50 45 -53 12 -10 170 -225 176 -240 3 -8 9
-17 13 -20 15 -10 133 -219 184 -325 86 -177 146 -340 194 -525 29 -112 35
-137 47 -210 3 -19 7 -37 9 -40 2 -3 6 -30 10 -60 10 -86 13 -115 15 -115 1 0
4 -38 7 -85 12 -180 7 -461 -12 -590 -3 -19 -7 -55 -10 -79 -2 -24 -7 -51 -9
-60 -3 -9 -7 -32 -10 -51 -7 -57 -64 -278 -101 -386 -56 -169 -107 -285 -213
-489 -24 -46 -157 -254 -189 -295 -191 -247 -377 -443 -543 -570 -25 -19 -47
-38 -50 -41 -3 -3 -45 -35 -95 -69 -49 -35 -92 -68 -93 -72 -2 -4 -7 -6 -12
-3 -5 3 -14 -1 -22 -8 -21 -20 -216 -131 -303 -172 -44 -20 -98 -46 -119 -56
-22 -11 -44 -19 -49 -19 -5 0 -23 -6 -40 -14 -35 -15 -99 -40 -107 -42 -3 0
-12 -3 -20 -7 -13 -5 -130 -39 -230 -67 -19 -6 -47 -12 -63 -14 -15 -3 -35 -7
-45 -10 -25 -8 -132 -27 -172 -31 -14 -2 -25 -4 -25 -5 0 -1 -13 -3 -30 -5
-16 -1 -59 -7 -95 -11 -81 -10 -545 -11 -620 0 -93 12 -133 17 -178 21 -23 3
-46 6 -51 9 -9 6 -64 17 -102 20 -14 2 -31 6 -37 10 -7 4 -12 5 -12 3 0 -3
-28 3 -62 13 -34 11 -65 17 -70 14 -4 -3 -8 0 -8 5 0 6 -9 11 -20 11 -23 0
-161 46 -295 97 -158 61 -402 187 -553 285 -15 10 -37 23 -49 29 -13 7 -23 16
-23 21 0 4 -5 8 -11 8 -20 0 -200 141 -332 260 -110 100 -245 240 -327 340
-25 30 -55 66 -68 80 -12 14 -48 62 -80 107 -31 45 -58 80 -61 78 -2 -2 11
-33 28 -69 17 -36 31 -70 31 -75 0 -6 5 -11 10 -11 6 0 10 -7 10 -15 0 -8 13
-37 30 -65 16 -28 30 -53 30 -56 0 -17 240 -376 270 -404 3 -3 37 -43 76 -90
103 -122 258 -275 369 -365 28 -22 59 -48 70 -58 10 -9 53 -41 95 -69 41 -29
77 -56 78 -60 2 -4 7 -8 11 -8 5 0 41 -22 82 -48 139 -91 347 -198 510 -262
30 -12 65 -27 79 -33 14 -5 30 -11 35 -12 6 -2 33 -10 60 -20 28 -9 57 -18 65
-20 8 -2 15 -4 15 -5 0 -2 -3 -1 162 -44 72 -19 148 -37 170 -40 21 -3 49 -8
63 -11 14 -3 40 -7 59 -10 18 -2 52 -7 75 -11 191 -29 631 -34 801 -9 17 2 54
7 82 9 29 3 56 7 60 9 5 3 31 7 58 11 43 5 84 14 245 53 14 3 32 7 40 8 8 1
28 7 43 14 16 6 31 11 35 11 4 0 43 12 87 26 44 14 85 27 90 28 6 2 19 7 30
11 51 21 121 47 130 50 24 5 277 125 285 134 3 3 23 14 45 24 22 10 56 29 75
41 19 13 82 53 140 89 58 36 114 73 125 81 11 9 45 35 76 58 31 24 71 54 89
68 18 14 46 36 61 50 15 14 56 50 90 80 51 45 149 143 262 262 9 10 17 23 17
28 0 6 4 10 8 10 11 0 128 146 209 262 100 140 186 286 273 463 53 109 157
361 164 400 2 13 9 32 14 42 8 16 66 220 77 269 2 10 11 53 20 94 9 41 18 93
21 114 2 21 6 42 8 45 6 9 18 112 32 271 14 158 8 562 -11 658 -5 30 -18 133
-19 160 -1 12 -4 22 -7 22 -4 0 -6 6 -6 13 2 18 -12 91 -35 187 -11 47 -22 94
-24 104 -4 20 -22 81 -31 106 -3 8 -7 22 -8 30 -5 31 -61 188 -91 257 -8 17
-14 33 -14 36 0 2 -9 24 -19 48 -11 24 -20 46 -20 49 -1 14 -175 345 -203 384
-4 6 -40 61 -80 121 -39 61 -74 112 -78 115 -3 3 -37 46 -75 95 -38 50 -83
106 -100 125 -44 50 -207 221 -229 239 -10 9 -37 33 -60 54 -22 21 -58 53 -80
70 -21 18 -43 37 -50 42 -6 6 -45 36 -86 67 -41 32 -83 64 -92 73 -10 8 -21
15 -25 15 -3 0 -21 11 -39 25 -18 14 -37 25 -42 25 -6 0 -12 4 -14 9 -8 24
-363 216 -508 276 -36 14 -79 33 -97 41 -17 8 -33 14 -36 14 -3 0 -18 5 -34
12 -15 6 -30 12 -33 13 -3 0 -41 13 -85 27 -110 37 -260 78 -345 93 -14 3 -32
7 -40 8 -16 4 -65 13 -115 22 -16 3 -55 8 -85 11 -30 3 -66 7 -80 10 -68 13
-504 27 -515 16z"/>
<path d="M4870 6309 c-115 -37 -189 -143 -185 -264 6 -208 223 -331 404 -229
214 121 160 457 -80 499 -69 12 -85 12 -139 -6z"/>
<path d="M3879 6007 c-1 -18 -1 -41 0 -52 4 -36 3 -49 -1 -91 -2 -23 -1 -50 3
-60 3 -11 3 -29 -2 -41 -5 -15 -5 -23 2 -23 6 0 6 -6 0 -18 -5 -10 -6 -24 -1
-31 4 -8 5 -25 1 -40 -7 -28 -6 -90 3 -98 2 -3 1 -16 -4 -29 -6 -16 -6 -24 1
-24 6 0 6 -6 0 -18 -5 -10 -6 -24 -1 -31 4 -8 5 -25 1 -40 -7 -28 -6 -90 3
-98 2 -3 1 -16 -4 -29 -6 -16 -6 -24 1 -24 6 0 6 -6 0 -18 -5 -10 -6 -24 -1
-31 4 -8 5 -25 1 -40 -7 -28 -6 -90 2 -98 3 -2 2 -17 -3 -32 -4 -16 -4 -34 0
-41 5 -7 4 -24 -1 -37 -5 -15 -5 -23 2 -23 6 0 6 -6 0 -18 -5 -10 -6 -24 -1
-31 4 -8 5 -25 1 -40 -7 -28 -6 -90 3 -98 2 -3 1 -16 -4 -29 -6 -16 -6 -24 1
-24 6 0 6 -6 0 -18 -5 -10 -6 -24 -1 -31 4 -8 5 -25 1 -40 -7 -28 -6 -90 3
-98 2 -3 1 -16 -4 -29 -6 -16 -6 -24 1 -24 6 0 6 -6 0 -18 -5 -10 -6 -24 -1
-31 4 -8 5 -25 1 -40 -7 -28 -6 -90 3 -98 2 -3 1 -16 -4 -29 -6 -16 -6 -24 1
-24 6 0 6 -6 0 -18 -5 -10 -6 -24 -1 -31 4 -8 5 -25 1 -40 -7 -28 -6 -90 3
-98 2 -3 1 -16 -4 -29 -6 -16 -6 -24 1 -24 6 0 6 -6 0 -18 -5 -10 -6 -24 -1
-31 4 -8 5 -25 1 -40 -4 -14 -5 -42 -3 -61 1 -19 4 -46 5 -60 1 -14 -1 -40 -4
-57 -4 -18 -3 -33 1 -33 5 0 5 -12 1 -27 -7 -30 -6 -91 3 -100 2 -3 1 -16 -4
-29 -6 -16 -6 -24 1 -24 6 0 7 -6 1 -16 -5 -9 -6 -33 -2 -54 4 -22 3 -43 -2
-48 -12 -12 2 -22 40 -28 70 -11 284 -81 340 -111 23 -13 42 -21 42 -19 0 13
199 -110 264 -164 43 -35 176 -172 176 -181 0 -4 7 -14 15 -22 8 -8 30 -44 50
-81 20 -36 38 -66 40 -66 5 0 -2 2416 -8 2447 -52 278 -203 495 -465 667 -78
52 -261 146 -282 146 -6 0 -18 4 -28 10 -18 10 -135 50 -164 55 -14 3 -18 -3
-19 -28z"/>
<path d="M5970 6009 c-96 -33 -248 -97 -270 -114 -8 -6 -35 -22 -60 -34 -25
-13 -47 -26 -50 -30 -3 -4 -23 -18 -45 -31 -48 -30 -64 -43 -166 -142 -132
-129 -215 -279 -254 -457 -3 -11 -8 -31 -11 -43 -8 -32 -11 -2439 -3 -2444 4
-2 12 9 17 25 18 50 98 163 165 232 102 104 241 201 372 259 95 42 113 50 118
50 3 0 16 4 29 9 13 5 25 9 28 9 3 1 31 10 63 21 31 11 57 18 57 15 0 -3 8 0
19 5 10 6 33 12 51 13 17 1 35 9 39 18 5 11 7 2565 2 2653 -1 21 2 22 -101
-14z"/>
</g>
</svg>
