<?xml version="1.0" standalone="no"?>
<!DOCTYPE svg PUBLIC "-//W3C//DTD SVG 20010904//EN"
 "http://www.w3.org/TR/2001/REC-SVG-20010904/DTD/svg10.dtd">
<svg version="1.0" xmlns="http://www.w3.org/2000/svg"
 width="843.000000pt" height="843.000000pt" viewBox="0 0 843.000000 843.000000"
 preserveAspectRatio="xMidYMid meet">
<metadata>
Created by potrace 1.11, written by Peter Selinger 2001-2013
</metadata>
<g transform="translate(0.000000,843.000000) scale(0.100000,-0.100000)"
fill="#000000" stroke="none">
<path d="M2412 6626 l-1802 -1802 0 -2412 0 -2412 3605 0 3605 0 0 2411 0
2412 -817 818 c-893 894 -2775 2776 -2783 2783 -3 3 -816 -807 -1808 -1798z
m2570 -1904 l757 -758 -2 -939 -2 -940 -1522 -1 -1523 -2 0 940 0 939 758 759
c416 417 762 759 767 759 6 1 351 -340 767 -757z"/>
</g>
</svg>
