<?xml version="1.0" standalone="no"?>
<!DOCTYPE svg PUBLIC "-//W3C//DTD SVG 20010904//EN"
 "http://www.w3.org/TR/2001/REC-SVG-20010904/DTD/svg10.dtd">
<svg version="1.0" xmlns="http://www.w3.org/2000/svg"
 width="568.000000pt" height="568.000000pt" viewBox="0 0 568.000000 568.000000"
 preserveAspectRatio="xMidYMid meet">
<metadata>
Created by potrace 1.14, written by Peter Selinger 2001-2017
</metadata>
<g transform="translate(0.000000,568.000000) scale(0.100000,-0.100000)"
fill="#000000" stroke="none">
<path d="M2510 5625 c-196 -26 -181 -23 -310 -51 -128 -27 -373 -103 -465
-143 -200 -89 -406 -202 -537 -295 -31 -23 -66 -48 -78 -56 -12 -8 -28 -19
-34 -25 -6 -5 -36 -30 -66 -55 -160 -130 -328 -304 -440 -455 -25 -33 -48 -61
-52 -63 -5 -2 -8 -10 -8 -17 0 -7 -3 -15 -8 -17 -16 -6 -172 -259 -172 -278 0
-4 -4 -10 -8 -12 -23 -10 -203 -450 -227 -558 -2 -8 -10 -40 -18 -70 -19 -68
-54 -250 -61 -310 -3 -25 -9 -74 -13 -110 -10 -80 -10 -440 -1 -535 7 -68 24
-190 32 -230 2 -11 12 -56 21 -100 9 -44 18 -89 21 -100 2 -11 8 -31 13 -45 5
-14 19 -59 31 -100 75 -255 225 -554 397 -792 120 -167 272 -338 399 -448 254
-220 480 -366 764 -490 77 -34 304 -115 345 -124 6 -1 19 -5 30 -9 11 -3 31
-8 45 -11 14 -3 57 -12 95 -21 92 -20 111 -24 165 -31 25 -3 52 -7 60 -9 100
-26 558 -27 730 -1 14 2 46 7 70 10 110 15 253 48 385 88 39 12 75 23 80 24 9
3 101 37 165 62 14 5 28 10 32 12 26 7 346 172 373 193 5 4 37 25 70 47 79 51
145 98 162 115 11 12 -39 66 -318 344 -182 182 -334 331 -339 331 -7 0 -149
-142 -557 -555 -151 -153 -181 -179 -263 -223 -99 -53 -177 -73 -305 -77 -406
-13 -724 309 -710 718 4 109 8 127 40 214 50 131 84 173 455 546 195 197 356
360 358 361 4 4 -368 376 -376 376 -4 0 -79 -72 -167 -161 -219 -219 -317
-289 -454 -325 -87 -22 -254 -19 -300 6 -9 4 -20 9 -26 9 -57 9 -167 64 -235
119 -248 200 -329 527 -204 825 84 199 294 365 509 402 83 14 209 8 280 -13
121 -37 208 -103 420 -319 94 -95 173 -173 177 -173 10 0 373 370 373 380 0 5
-156 168 -347 362 -191 194 -359 369 -374 388 -33 45 -80 147 -101 219 -22 74
-26 269 -8 322 8 22 12 39 10 39 -2 0 2 18 10 40 129 366 531 562 887 434 131
-48 181 -86 381 -288 573 -581 528 -539 550 -519 10 10 162 161 337 336 l318
318 -71 52 c-307 225 -706 403 -1067 476 -98 20 -128 25 -210 36 -25 3 -63 8
-85 11 -85 12 -482 11 -575 -1z"/>
<path d="M2589 5036 c-2 -2 -18 -6 -36 -9 -120 -19 -297 -181 -318 -293 -2
-10 -4 -19 -5 -19 -6 0 -12 -52 -15 -117 -3 -82 12 -144 55 -229 14 -27 109
-130 246 -269 122 -124 288 -292 368 -373 81 -82 151 -147 156 -145 5 2 149
142 320 313 l311 309 -90 91 c-50 49 -215 217 -368 371 -153 155 -296 293
-319 307 -63 39 -132 58 -220 63 -44 2 -83 2 -85 0z"/>
<path d="M4362 4548 c-188 -188 -342 -343 -342 -346 0 -4 273 -283 474 -483
60 -61 67 -71 55 -86 -8 -9 -185 -189 -394 -400 -209 -211 -381 -387 -383
-391 -1 -4 176 -187 393 -406 217 -219 395 -401 395 -404 0 -4 -326 -336 -513
-522 l-37 -37 340 -339 c187 -186 344 -340 349 -342 10 -3 124 109 201 197 30
35 60 69 65 75 50 53 169 224 244 351 43 71 172 321 170 328 -1 1 6 20 15 42
43 103 119 339 133 415 2 14 9 45 14 70 6 25 13 56 15 70 2 14 6 40 9 58 3 17
8 49 10 70 3 20 7 57 11 82 3 25 7 92 9 150 3 58 5 105 5 105 1 0 2 15 3 33 1
17 0 32 -3 32 -3 0 -5 37 -5 83 -1 104 -13 234 -30 332 -4 22 -8 49 -10 60
-21 132 -102 409 -162 555 -43 103 -158 329 -202 398 -23 34 -41 67 -41 72 0
4 -3 10 -7 12 -5 2 -30 35 -56 73 -86 126 -267 334 -363 417 -19 17 -30 7
-362 -324z"/>
<path d="M3535 3720 c-171 -170 -311 -314 -313 -319 -3 -9 358 -381 370 -381
10 0 623 621 621 630 -1 4 -85 91 -185 193 l-184 186 -309 -309z"/>
<path d="M1627 3279 c-138 -31 -262 -141 -318 -280 -26 -67 -32 -192 -13 -269
49 -191 218 -328 416 -335 144 -5 210 43 551 393 l48 49 -188 190 c-163 165
-197 195 -258 224 -74 36 -157 46 -238 28z"/>
<path d="M2874 3059 c-87 -89 -171 -173 -186 -187 -16 -14 -28 -30 -28 -36 0
-6 84 -95 187 -198 l187 -187 193 195 192 194 -188 190 c-103 105 -190 190
-193 190 -3 0 -76 -73 -164 -161z"/>
<path d="M3396 2469 l-189 -191 316 -316 316 -316 191 194 191 194 -28 27
c-15 15 -156 155 -311 313 -156 157 -287 286 -290 286 -4 0 -92 -86 -196 -191z"/>
<path d="M2670 1738 c-200 -200 -376 -383 -392 -408 -47 -73 -67 -155 -63
-252 4 -100 5 -107 41 -181 33 -71 131 -173 194 -204 73 -36 149 -51 225 -47
79 4 84 5 140 23 79 27 145 85 480 427 187 191 347 353 356 362 15 13 -14 45
-298 328 -174 173 -317 314 -318 314 -2 0 -166 -163 -365 -362z"/>
</g>
</svg>
