<?xml version="1.0" standalone="no"?>
<!DOCTYPE svg PUBLIC "-//W3C//DTD SVG 20010904//EN"
 "http://www.w3.org/TR/2001/REC-SVG-20010904/DTD/svg10.dtd">
<svg version="1.0" xmlns="http://www.w3.org/2000/svg"
 width="700.000000pt" height="700.000000pt" viewBox="0 0 700.000000 700.000000"
 preserveAspectRatio="xMidYMid meet">
<metadata>
Created by potrace 1.14, written by Peter Selinger 2001-2017
</metadata>
<g transform="translate(0.000000,700.000000) scale(0.100000,-0.100000)"
fill="#000000" stroke="none">
<path d="M3278 6995 c-1 -1 -42 -5 -89 -9 -47 -4 -95 -8 -105 -10 -10 -2 -48
-7 -84 -12 -36 -4 -67 -8 -70 -9 -3 -1 -25 -5 -50 -9 -34 -6 -213 -47 -305
-70 -224 -56 -617 -219 -810 -336 -27 -17 -58 -33 -67 -36 -10 -4 -18 -10 -18
-15 0 -5 -5 -9 -10 -9 -16 0 -202 -127 -315 -215 -431 -335 -790 -782 -1016
-1263 -27 -57 -49 -105 -49 -108 0 -2 -9 -23 -20 -47 -103 -222 -220 -664
-246 -932 -2 -22 -7 -76 -11 -120 -15 -157 -8 -588 12 -706 2 -13 6 -46 9 -74
9 -78 22 -152 51 -285 21 -96 91 -339 114 -395 5 -11 25 -65 46 -120 50 -132
181 -398 250 -508 30 -49 55 -90 55 -93 0 -3 4 -10 10 -17 5 -7 46 -64 91
-126 587 -832 1535 -1373 2553 -1458 181 -16 573 -8 726 13 19 3 51 7 70 10
92 12 216 36 311 59 35 9 71 17 80 20 158 36 440 141 629 233 292 141 594 344
819 549 100 92 254 249 306 313 21 25 41 47 45 50 17 12 179 233 245 335 80
122 169 283 233 418 23 49 42 91 42 93 0 2 11 27 24 56 57 127 151 421 182
573 17 81 54 301 59 350 4 33 9 71 11 85 9 48 11 526 3 612 -8 86 -18 175 -24
213 -2 11 -6 45 -10 75 -4 30 -9 58 -11 61 -2 4 -6 24 -10 45 -3 22 -21 100
-39 175 -205 826 -725 1569 -1436 2050 -327 221 -711 393 -1088 489 -120 30
-243 56 -311 65 -19 3 -46 7 -60 10 -13 2 -52 7 -86 11 -33 3 -74 8 -90 10
-32 5 -540 14 -546 9z m-118 -3834 c8 -1 4 -2450 -3 -2457 -14 -15 -418 64
-492 95 -11 5 -49 19 -85 31 -36 12 -84 30 -107 41 -24 10 -48 19 -54 19 -17
0 -311 148 -368 185 -29 19 -55 35 -58 35 -2 0 -55 36 -117 80 -487 348 -839
809 -1038 1364 -38 108 -92 298 -103 366 -3 19 -8 42 -10 50 -2 8 -7 33 -9 55
-3 22 -9 61 -14 87 -5 26 -8 49 -6 50 2 3 2450 1 2464 -1z"/>
</g>
</svg>
