<?xml version="1.0" standalone="no"?>
<!DOCTYPE svg PUBLIC "-//W3C//DTD SVG 20010904//EN"
 "http://www.w3.org/TR/2001/REC-SVG-20010904/DTD/svg10.dtd">
<svg version="1.0" xmlns="http://www.w3.org/2000/svg"
 width="393.000000pt" height="393.000000pt" viewBox="0 0 393.000000 393.000000"
 preserveAspectRatio="xMidYMid meet">
<metadata>
Created by potrace 1.11, written by Peter Selinger 2001-2013
</metadata>
<g transform="translate(0.000000,393.000000) scale(0.100000,-0.100000)"
fill="#000000" stroke="none">
<path d="M1680 3874 c-444 -62 -800 -235 -1114 -542 -291 -286 -485 -669 -552
-1092 -9 -61 -12 -382 -3 -458 26 -233 78 -416 175 -620 184 -388 497 -704
889 -900 229 -114 434 -171 705 -198 34 -4 2036 -8 2123 -5 21 1 23 -2 -252
310 -90 102 -189 215 -219 249 -93 105 -90 93 -38 167 221 317 395 734 432
1038 11 89 5 300 -11 357 -2 8 -6 33 -10 55 -27 193 -86 379 -180 570 -200
406 -506 711 -906 903 -168 81 -310 125 -506 158 -149 25 -389 28 -533 8z
m460 -909 c193 -45 345 -130 491 -275 109 -109 206 -258 240 -370 28 -91 40
-139 47 -185 9 -62 9 -262 0 -331 -12 -97 -80 -274 -144 -375 -21 -34 -22 -38
-6 -55 9 -11 64 -73 121 -139 57 -66 109 -124 115 -130 31 -28 127 -145 119
-145 -81 -4 -1325 1 -1343 5 -14 3 -41 8 -60 11 -89 15 -294 96 -345 137 -5 4
-32 23 -58 41 -113 78 -245 234 -305 358 -79 164 -104 267 -108 448 -3 179 23
305 95 451 150 303 415 505 743 563 98 18 303 13 398 -9z"/>
</g>
</svg>
