<?xml version="1.0" standalone="no"?>
<!DOCTYPE svg PUBLIC "-//W3C//DTD SVG 20010904//EN"
 "http://www.w3.org/TR/2001/REC-SVG-20010904/DTD/svg10.dtd">
<svg version="1.0" xmlns="http://www.w3.org/2000/svg"
 width="380.000000pt" height="380.000000pt" viewBox="0 0 380.000000 380.000000"
 preserveAspectRatio="xMidYMid meet">
<metadata>
Created by potrace 1.14, written by Peter Selinger 2001-2017
</metadata>
<g transform="translate(0.000000,380.000000) scale(0.100000,-0.100000)"
fill="#000000" stroke="none">
<path d="M585 3240 c-4 -6 -5 -13 -4 -14 8 -7 116 -54 154 -67 22 -7 44 -17
49 -21 6 -4 20 -8 33 -8 13 0 31 -4 41 -9 9 -5 78 -29 152 -52 153 -48 320
-109 398 -145 29 -13 58 -24 65 -24 7 0 17 -4 22 -8 6 -5 35 -19 65 -31 62
-26 400 -191 415 -204 20 -16 125 -75 125 -71 0 3 9 -4 20 -14 11 -10 33 -25
48 -33 15 -8 29 -17 32 -21 3 -3 11 -8 19 -10 7 -2 27 -15 44 -30 17 -15 34
-25 39 -22 4 3 8 2 8 -3 0 -4 30 -30 68 -58 37 -27 80 -61 96 -75 16 -14 34
-23 40 -22 6 2 8 1 5 -2 -3 -4 42 -55 101 -114 210 -211 307 -363 377 -592 2
-8 4 -15 4 -15 0 0 4 -18 10 -40 38 -156 27 -371 -27 -548 -5 -16 1 -15 48 9
89 45 208 115 208 123 0 4 6 8 13 8 17 0 137 84 137 96 0 4 5 5 10 2 6 -3 10
1 10 10 0 9 4 14 8 11 10 -6 64 39 57 48 -3 3 -2 4 1 1 6 -4 92 66 87 72 -1 1
17 21 41 45 23 24 56 64 73 88 36 54 86 150 77 150 -4 0 -2 6 5 13 6 8 17 45
25 84 13 62 13 76 0 128 -20 74 -42 118 -93 182 -42 54 -150 161 -154 153 -1
-2 -14 7 -28 20 -40 39 -69 60 -69 52 0 -4 -5 1 -11 11 -5 9 -16 17 -24 17 -7
0 -15 3 -17 8 -13 29 -317 196 -558 304 -30 14 -77 35 -105 48 -27 12 -54 23
-60 25 -5 1 -21 7 -35 12 -14 6 -45 19 -70 28 -25 9 -54 21 -65 26 -28 13
-154 59 -160 59 -3 0 -22 7 -42 15 -21 9 -44 17 -53 19 -8 2 -22 6 -30 9 -39
15 -217 71 -230 72 -8 1 -22 5 -30 8 -33 13 -110 37 -132 41 -13 2 -35 9 -49
14 -14 6 -39 13 -55 16 -16 3 -54 12 -84 22 -30 9 -64 17 -75 19 -11 1 -27 5
-35 8 -19 7 -157 39 -185 43 -11 2 -49 10 -85 19 -36 9 -76 19 -90 21 -51 10
-68 13 -215 42 -82 17 -172 33 -200 37 -59 8 -80 11 -121 20 -20 5 -34 3 -39
-5z"/>
<path d="M2792 1619 c-7 -35 -14 -69 -16 -76 -1 -7 -5 -16 -9 -19 -4 -4 -7
-13 -7 -21 0 -25 -72 -167 -121 -238 -42 -62 -58 -83 -111 -145 -7 -8 -12 -18
-10 -22 1 -5 -1 -7 -5 -6 -5 2 -31 -20 -59 -47 -69 -68 -107 -101 -184 -159
-36 -27 -68 -54 -72 -60 -4 -6 -8 -7 -8 -2 0 5 -10 0 -22 -10 -50 -44 -162
-109 -345 -199 -73 -36 -133 -68 -133 -71 0 -4 21 -3 48 1 26 4 72 9 102 10
133 9 345 40 445 67 22 5 47 11 56 13 31 6 174 58 187 67 6 6 12 8 12 4 0 -7
61 22 70 33 3 3 23 15 45 26 63 32 168 142 200 210 45 96 54 145 51 278 -2 67
-6 133 -10 147 -10 39 -17 72 -23 103 -3 15 -8 27 -12 27 -3 0 -7 10 -7 23 -1
12 -13 46 -26 76 l-24 55 -12 -65z"/>
</g>
</svg>
