<svg xmlns="http://www.w3.org/2000/svg" width="129.744" height="43.437" viewBox="0 0 129.744 43.437"><g transform="translate(-98.79 -89.085)"><g transform="translate(149.421 89.335)"><path d="M198.58,89.335h2.172v7.337h9.219V89.335h2.172V106.59H209.97V98.433h-9.219v8.157H198.58Z" transform="translate(-196.842 -89.335)" fill="#fff" stroke="#fff" stroke-width="0.5"/><path d="M226.927,104.427c0-3.62,2.365-6.564,5.912-6.564,3.741,0,5.744,2.9,5.744,7.022H228.93c.145,2.534,1.52,4.464,4.03,4.464a3.234,3.234,0,0,0,3.451-2.558h1.906a5.076,5.076,0,0,1-5.357,4.2C229.147,110.991,226.927,108.047,226.927,104.427Zm2.051-1.014h7.505c-.12-2.486-1.4-4.006-3.644-4.006C230.523,99.407,229.268,101.145,228.978,103.413Z" transform="translate(-210.348 -93.398)" fill="#fff" stroke="#fff" stroke-width="0.5"/><path d="M259.8,108.981h-.024a5.013,5.013,0,0,1-4.151,1.979c-2.365,0-4.223-1.11-4.223-3.475,0-2.944,2.317-3.548,5.43-4.03,1.762-.265,2.992-.435,2.992-1.786,0-1.4-1.014-2.2-2.8-2.2-2.027,0-3.04.869-3.113,2.751H252.03C252.1,99.811,253.7,98,257,98c2.655,0,4.609.989,4.609,3.958V107.9c0,1.014.241,1.569,1.327,1.327h.073v1.424a2.68,2.68,0,0,1-1.062.193A1.918,1.918,0,0,1,259.8,108.981Zm.048-2.872v-2.124A8.959,8.959,0,0,1,257,104.9c-1.954.362-3.523.7-3.523,2.534,0,1.665,1.3,2.027,2.582,2.027A3.517,3.517,0,0,0,259.849,106.109Z" transform="translate(-222.01 -93.464)" fill="#fff" stroke="#fff" stroke-width="0.5"/><path d="M276.477,89.335h1.955V106.59h-1.955Z" transform="translate(-233.956 -89.335)" fill="#fff" stroke="#fff" stroke-width="0.5"/><path d="M282.054,94.882h1.81V90.948h1.955v3.934h2.413v1.593h-2.413v8.108c0,.869.458,1.159,1.255,1.159a3.717,3.717,0,0,0,1.038-.169h.072v1.69a7.635,7.635,0,0,1-1.569.169c-1.593,0-2.751-.651-2.751-2.413V96.475h-1.81Z" transform="translate(-236.613 -90.104)" fill="#fff" stroke="#fff" stroke-width="0.5"/><path d="M298.758,95.754h.048a4.677,4.677,0,0,1,3.958-1.93c2.606,0,4.2,1.424,4.2,4.006v8.76h-1.955V98c0-1.617-1.062-2.534-2.823-2.534a3.3,3.3,0,0,0-3.427,3.451v7.674H296.8V89.335h1.954Z" transform="translate(-243.641 -89.335)" fill="#fff" stroke="#fff" stroke-width="0.5"/><path d="M209.547,138.983c-.386-2.438-2.534-4.8-6.3-4.8-4.778,0-7.626,3.548-7.626,8.471,0,5.116,2.969,8.519,7.529,8.519a6.447,6.447,0,0,0,6.637-5.985h.338a7.089,7.089,0,0,1-2.027,4.392,6.816,6.816,0,0,1-4.948,1.93c-4.73,0-7.891-3.5-7.891-8.856,0-5.14,3.065-8.808,7.988-8.808,3.958,0,6.226,2.509,6.636,5.14Z" transform="translate(-195.261 -110.541)" fill="#fff" stroke="#fff" stroke-width="0.5"/><path d="M227.2,141.354h.048a4.9,4.9,0,0,1,4.585-2.51c2.775,0,3.982,1.665,3.982,3.693v8.929h-.362v-8.9c0-2.2-1.375-3.378-3.644-3.378-2.8,0-4.609,1.93-4.609,3.668v8.615h-.362V134.211h.362Z" transform="translate(-210.304 -110.716)" fill="#fff" stroke="#fff" stroke-width="0.5"/><path d="M247.016,149.265c.024,3.669,1.979,6.251,5.357,6.251a4.548,4.548,0,0,0,4.706-3.5h.362a4.9,4.9,0,0,1-5.068,3.837c-3.716,0-5.719-2.848-5.719-6.612,0-3.427,2.075-6.226,5.6-6.226a4.906,4.906,0,0,1,3.185,1.038,6.719,6.719,0,0,1,2.22,5.212Zm5.237-5.912c-2.751,0-5.116,2.051-5.237,5.574H257.3C257.007,144.922,254.666,143.353,252.253,143.353Z" transform="translate(-219.747 -114.911)" fill="#fff" stroke="#fff" stroke-width="0.5"/><path d="M281.976,151.461c-.314,2.486-2,4.392-5.333,4.392-3.548,0-5.744-2.993-5.744-6.467,0-3.451,2.172-6.371,5.744-6.371,2.8,0,4.778,1.472,5.285,3.933h-.362c-.579-2.558-2.655-3.6-4.923-3.6-2.872,0-5.382,2.172-5.382,6.033,0,3.813,2.485,6.13,5.382,6.13,2.872,0,4.633-1.5,4.971-4.054Z" transform="translate(-231.299 -114.911)" fill="#fff" stroke="#fff" stroke-width="0.5"/><path d="M297.652,144.3l-2.607,2.558v4.609h-.362V134.211h.362V146.4l7.506-7.409h.482l-5.14,5.068,6.009,7.408h-.41Z" transform="translate(-242.631 -110.716)" fill="#fff" stroke="#fff" stroke-width="0.5"/><path d="M311.961,149.265c.024,3.669,1.979,6.251,5.358,6.251a4.547,4.547,0,0,0,4.706-3.5h.362a4.9,4.9,0,0,1-5.068,3.837c-3.716,0-5.719-2.848-5.719-6.612,0-3.427,2.075-6.226,5.6-6.226a4.906,4.906,0,0,1,3.185,1.038,6.722,6.722,0,0,1,2.22,5.212Zm5.237-5.912c-2.751,0-5.116,2.051-5.237,5.574h10.28C321.952,144.922,319.611,143.353,317.2,143.353Z" transform="translate(-250.69 -114.911)" fill="#fff" stroke="#fff" stroke-width="0.5"/><path d="M340.863,143.544a3.484,3.484,0,0,0-1.086-.145,4.23,4.23,0,0,0-4.078,3.982v8.3h-.362V143.206h.362v2.606h.049a4.458,4.458,0,0,1,4.054-2.751,3.6,3.6,0,0,1,1.062.145Z" transform="translate(-262 -114.933)" fill="#fff" stroke="#fff" stroke-width="0.5"/></g><g transform="translate(99.05 89.335)"><g transform="translate(10.811)"><path d="M122.907,103.184c0,2.925-.165,5.738.046,8.521a7.322,7.322,0,0,0,5.739,6.464,7.721,7.721,0,0,0,7.876-2.9,7.042,7.042,0,0,0,1.419-3.809c.064-2.61.039-5.222.047-7.833a2.9,2.9,0,0,0-.09-.441c-.609,0-1.23,0-1.851,0-.357,0-.717.02-1.071-.015a1.556,1.556,0,0,1,.062-3.111c.768-.038,1.539-.016,2.309-.016.715,0,1.431-.023,2.144.013a1.557,1.557,0,0,1,1.621,1.618c.017,3.271.1,6.546-.037,9.813a10.572,10.572,0,0,1-8.35,9.7c-.515.083-.748.293-.723.863a6.952,6.952,0,0,0,1.872,4.551,3.849,3.849,0,0,0,3.253,1.066,10.176,10.176,0,0,0,7.384-4.144,20.17,20.17,0,0,0,4-9.965,19.038,19.038,0,0,0-.9-8.933,17.27,17.27,0,0,0-6.137-8.379,18.141,18.141,0,0,0-12.183-3.733,18.413,18.413,0,0,0-6.424,1.649c-.586.263-1.173.631-1.876.265a1.6,1.6,0,0,1-1-1.306,1.41,1.41,0,0,1,.863-1.468,30.351,30.351,0,0,1,3.115-1.292,20.15,20.15,0,0,1,8.463-.912,21.5,21.5,0,0,1,19.011,17.246,21.536,21.536,0,0,1,.024,8.36,23.66,23.66,0,0,1-3.527,9.066,14.117,14.117,0,0,1-7.761,6.052,9.889,9.889,0,0,1-5.924.165,6.939,6.939,0,0,1-4.663-4.84,20.8,20.8,0,0,1-.685-3.465c-.067-.51-.248-.735-.713-.827a10.37,10.37,0,0,1-7.672-6.343,10.547,10.547,0,0,1-.859-4.416q-.008-4.165,0-8.33c0-1.471.589-2.064,2.036-2.073q2.021-.011,4.041.008a1.589,1.589,0,0,1,1.531,1.056,1.231,1.231,0,0,1-.323,1.507,2.827,2.827,0,0,1-1.4.546C124.72,103.245,123.839,103.184,122.907,103.184Z" transform="translate(-119.7 -89.335)" fill="#fff"/></g><g transform="translate(0 5.988)"><path d="M106.908,137.722a6.194,6.194,0,0,1-5.2-9.646,1.127,1.127,0,0,0,.06-1.4,21.521,21.521,0,0,1,3.01-25.088,1.952,1.952,0,0,1,2.022-.752,1.64,1.64,0,0,1,1.115.919,1.577,1.577,0,0,1-.1,1.406,4.416,4.416,0,0,1-.619.806,17.784,17.784,0,0,0-4.55,9.6,17.981,17.981,0,0,0,2.038,11.384c.21.386.332.566.79.471a6.213,6.213,0,0,1,7.663,6.179,6.277,6.277,0,0,1-5.543,6.089Q107.245,137.722,106.908,137.722Zm-.586-36.677a1.825,1.825,0,0,0-1.34.73,21.247,21.247,0,0,0-2.972,24.769,1.4,1.4,0,0,1-.071,1.683,5.584,5.584,0,0,0-.271,6.159,5.689,5.689,0,0,0,5.909,3.036,5.993,5.993,0,0,0,5.29-5.815h0a5.94,5.94,0,0,0-7.333-5.914c-.676.142-.894-.255-1.086-.606a18.25,18.25,0,0,1-2.068-11.553A18.05,18.05,0,0,1,107,103.786a4.2,4.2,0,0,0,.582-.754,1.312,1.312,0,0,0,.087-1.166,1.368,1.368,0,0,0-.933-.762A1.606,1.606,0,0,0,106.321,101.045Zm.508,33.6h-.042a3.27,3.27,0,0,1-2.259-1.032,2.955,2.955,0,0,1-.794-2.232,3.093,3.093,0,0,1,3.118-2.976h.04a3.116,3.116,0,0,1,2.217.921,3.18,3.18,0,0,1,.876,2.288A3.122,3.122,0,0,1,106.829,134.649Zm.024-5.967a2.823,2.823,0,0,0-2.846,2.718,2.683,2.683,0,0,0,.721,2.031,2.985,2.985,0,0,0,2.062.945,2.85,2.85,0,0,0,2.924-2.761h0a2.906,2.906,0,0,0-.8-2.093,2.842,2.842,0,0,0-2.025-.839Z" transform="translate(-99.05 -100.773)" fill="#fff" stroke="#fff" stroke-width="0.5"/></g></g></g></svg>