<svg width="169" height="43" viewBox="0 0 169 43" fill="none" xmlns="http://www.w3.org/2000/svg">
<path d="M69.9822 23.9325H49.9038V22.7385C50.4935 22.7316 51.0814 22.6698 51.6597 22.5541C52.0495 22.4784 52.4101 22.2943 52.7 22.023C52.9722 21.7306 53.1471 21.361 53.2005 20.9651C53.29 20.3842 53.3311 19.7969 53.3234 19.2092V4.74085C53.3332 4.15358 53.2965 3.56645 53.2136 2.98498C53.167 2.60011 53.0151 2.23556 52.7747 1.93145C52.5261 1.65432 52.1926 1.4675 51.8265 1.4003C51.2937 1.29343 50.7538 1.22594 50.2111 1.19838V0H59.6577V1.18082C59.1198 1.18658 58.5842 1.24986 58.0598 1.36958C57.6956 1.44812 57.3671 1.64396 57.1248 1.92707C56.8851 2.25645 56.7339 2.64188 56.6859 3.04643C56.6026 3.67498 56.5659 4.30882 56.5761 4.94277V18.3488C56.5552 19.068 56.6456 19.7862 56.8439 20.4778C56.993 20.9909 57.3098 21.4391 57.7438 21.7508C58.2544 22.0835 58.8336 22.2966 59.4382 22.3742C60.3235 22.5007 61.2173 22.558 62.1115 22.5454C63.1088 22.5569 64.1054 22.4894 65.0921 22.3434C65.8112 22.24 66.5031 21.997 67.1289 21.6279C67.6894 21.279 68.1446 20.7844 68.4458 20.1969C68.8148 19.4382 69.0862 18.6358 69.2535 17.8089H70.4343L69.9822 23.9325Z" fill="#061A40"/>
<path d="M81.9484 13.3973V12.1243C81.9484 9.59581 80.8714 8.33158 78.7176 8.33158C78.4136 8.32624 78.11 8.35719 77.8133 8.42376C77.5848 8.47605 77.3724 8.58299 77.1944 8.73543C77.0102 8.91215 76.8613 9.12217 76.7554 9.35437C76.6002 9.67569 76.4711 10.0089 76.3691 10.3508C76.232 10.7931 76.0031 11.2014 75.6975 11.5492C75.4289 11.7616 75.0909 11.8665 74.7493 11.8433C73.7133 11.8433 73.1954 11.3253 73.1954 10.2894C73.1954 9.29292 73.7265 8.5335 74.78 7.97163C75.8336 7.40975 77.3392 7.15076 79.2882 7.15076C81.3602 7.15076 82.8322 7.51803 83.7042 8.25257C84.5763 8.9871 85.0153 10.2352 85.0211 11.997V18.959C85.0211 21.3206 85.4879 22.5014 86.4214 22.5014C86.7043 22.5021 86.986 22.4667 87.2599 22.3961C87.5531 22.3006 87.7973 22.0942 87.9403 21.821L88.3792 22.5673C88.0626 23.1018 87.5824 23.5204 87.0097 23.7613C86.362 24.0789 85.6503 24.244 84.929 24.2441C84.5439 24.272 84.1578 24.2067 83.8033 24.0539C83.4488 23.9011 83.1363 23.6652 82.8922 23.3662C82.4044 22.6429 82.1698 21.7786 82.2249 20.908H82.0669C81.5551 21.901 80.7808 22.7345 79.8282 23.3179C78.877 23.9066 77.7773 24.2112 76.6588 24.1959C75.5462 24.2581 74.4504 23.9027 73.586 23.1994C73.2139 22.8639 72.9205 22.4503 72.727 21.9881C72.5335 21.5259 72.4446 21.0267 72.4667 20.5261C72.4647 20.0379 72.5555 19.5537 72.7344 19.0994C72.9299 18.6093 73.2192 18.1619 73.586 17.7825C74.0451 17.3273 74.5564 16.928 75.1093 16.5929C75.8667 16.1285 76.6559 15.7178 77.4709 15.3638L81.9484 13.3973ZM81.9484 14.7142C80.924 15.0939 79.9229 15.5336 78.9502 16.0311C78.2436 16.3931 77.5808 16.835 76.9749 17.348C76.5347 17.7123 76.1708 18.1598 75.9038 18.6649C75.6936 19.0722 75.5823 19.5234 75.579 19.9818C75.5666 20.2936 75.621 20.6044 75.7383 20.8936C75.8556 21.1827 76.0333 21.4436 76.2594 21.6586C76.7504 22.1069 77.3992 22.3421 78.0635 22.3127C78.5924 22.3147 79.1122 22.1752 79.5692 21.9088C80.0501 21.6297 80.4684 21.2547 80.7983 20.807C81.1663 20.3065 81.4496 19.7489 81.6367 19.1565C81.846 18.51 81.9512 17.8343 81.9484 17.1548V14.7142Z" fill="#061A40"/>
<path d="M96.3375 24.2441H95.1874L91.1489 11.3253C91.0008 10.8495 90.8234 10.3833 90.6178 9.92939C90.48 9.61326 90.28 9.32811 90.0296 9.09097C89.8041 8.87551 89.5253 8.724 89.2219 8.652C88.8437 8.57354 88.458 8.53674 88.0718 8.54226V7.45801H96.3068V8.54664C95.7235 8.50616 95.1388 8.60236 94.5992 8.82758C94.4327 8.9244 94.2972 9.06665 94.2086 9.23768C94.1199 9.4087 94.0819 9.60143 94.0988 9.79331C94.1054 10.0389 94.1378 10.2831 94.1954 10.522C94.2568 10.8029 94.3402 11.1497 94.4412 11.5624L96.557 18.9897H96.6799L101.25 7.45801H102.215L106.346 18.9897H106.473L108.321 13.9591C108.572 13.2787 108.76 12.7037 108.945 12.234C109.129 11.7643 109.239 11.356 109.331 11.0531C109.411 10.7933 109.479 10.5296 109.533 10.263C109.576 10.0683 109.598 9.8697 109.599 9.6704C109.618 9.50112 109.591 9.32972 109.52 9.1749C109.448 9.02009 109.336 8.8878 109.195 8.79247C108.655 8.60483 108.083 8.53012 107.514 8.57299V7.45801H113.729V8.54664C113.459 8.54013 113.191 8.5879 112.939 8.68711C112.681 8.81352 112.456 9.00021 112.285 9.23144C112.018 9.58725 111.794 9.97327 111.618 10.3815C111.39 10.879 111.11 11.5316 110.78 12.3393L105.951 24.2441H104.81L101.03 12.7739H100.907L96.3375 24.2441Z" fill="#061A40"/>
<path d="M116.574 23.9325H115.889V18.5859H116.662C117.469 21.5123 118.94 22.9755 121.073 22.9755C121.783 23.0136 122.483 22.799 123.049 22.3698C123.303 22.1367 123.501 21.8487 123.627 21.5277C123.753 21.2067 123.805 20.8612 123.777 20.5173C123.786 20.2475 123.739 19.9787 123.641 19.7272C123.513 19.465 123.332 19.2319 123.11 19.0424C122.769 18.7403 122.405 18.4644 122.022 18.2171C121.559 17.9069 120.943 17.5118 120.173 17.0319C119.471 16.5929 118.857 16.1935 118.339 15.8204C117.862 15.4884 117.421 15.109 117.022 14.6878C116.686 14.3286 116.417 13.9124 116.227 13.4587C116.043 12.9726 115.953 12.4554 115.964 11.9355C115.956 11.2714 116.078 10.6122 116.324 9.99527C116.543 9.43018 116.876 8.9162 117.303 8.48522C117.721 8.06796 118.216 7.73556 118.76 7.50632C119.341 7.26527 119.966 7.14432 120.595 7.15076C121.77 7.17002 122.918 7.50184 123.922 8.1121L124.563 7.45804H125.156V11.9355H124.344C124.04 10.9399 123.532 10.0189 122.851 9.23146C122.593 8.96803 122.283 8.76043 121.941 8.6215C121.599 8.48258 121.232 8.41528 120.863 8.42376C120.248 8.39218 119.644 8.59097 119.168 8.98125C118.954 9.17684 118.785 9.41775 118.675 9.68652C118.565 9.95529 118.516 10.2452 118.532 10.5352C118.524 10.8496 118.582 11.1621 118.703 11.4526C118.837 11.7341 119.021 11.9886 119.247 12.2033C119.538 12.4862 119.856 12.7406 120.195 12.9627C120.577 13.2217 121.038 13.5202 121.578 13.8406C122.456 14.4025 123.217 14.9 123.861 15.3331C124.42 15.7059 124.937 16.1386 125.402 16.6237C125.769 17.0076 126.067 17.4534 126.28 17.9406C126.472 18.4356 126.568 18.9633 126.56 19.4945C126.592 20.1416 126.481 20.7878 126.233 21.3866C125.986 21.9854 125.609 22.5221 125.129 22.958C124.076 23.832 122.735 24.2813 121.367 24.2178C119.858 24.254 118.383 23.7583 117.202 22.8175L116.574 23.9325Z" fill="#061A40"/>
<path d="M138.11 7.15073C140.387 7.14047 142.584 7.99557 144.255 9.5431C145.055 10.2876 145.699 11.1826 146.152 12.1769C146.624 13.2374 146.862 14.3873 146.85 15.5482C146.864 16.7071 146.642 17.8567 146.195 18.9264C145.749 19.9961 145.089 20.9632 144.255 21.7683C143.449 22.5381 142.505 23.1487 141.472 23.5681C139.333 24.4283 136.944 24.4283 134.804 23.5681C133.781 23.1561 132.848 22.5494 132.056 21.7815C131.257 20.9977 130.623 20.0619 130.191 19.0292C129.725 17.9178 129.492 16.7226 129.506 15.5174C129.503 14.3777 129.734 13.2495 130.186 12.2032C130.622 11.1955 131.256 10.2862 132.052 9.52993C132.847 8.7737 133.78 8.17756 134.8 7.77406C135.854 7.35881 136.977 7.14729 138.11 7.15073V7.15073ZM138.11 8.64322C137.382 8.62957 136.663 8.79701 136.016 9.13047C135.373 9.46859 134.818 9.9527 134.396 10.5439C133.927 11.2084 133.58 11.9518 133.373 12.7388C133.124 13.6661 133.003 14.6231 133.013 15.5833C133.001 16.5681 133.122 17.5501 133.373 18.5024C133.577 19.2987 133.923 20.0513 134.396 20.7236C134.815 21.3124 135.363 21.7975 135.998 22.1415C136.65 22.4785 137.376 22.649 138.11 22.6375C138.855 22.6472 139.591 22.4771 140.256 22.1415C140.908 21.7978 141.471 21.308 141.902 20.7104C142.384 20.0324 142.742 19.2745 142.96 18.4717C143.219 17.5311 143.345 16.5588 143.333 15.5833C143.345 14.6265 143.219 13.6731 142.96 12.7519C142.741 11.9632 142.383 11.2199 141.902 10.5571C141.466 9.96407 140.904 9.47529 140.256 9.12608C139.592 8.78927 138.854 8.62331 138.11 8.64322V8.64322Z" fill="#061A40"/>
<path d="M155.049 19.0512C155.049 19.9028 155.071 20.5701 155.111 21.0573C155.126 21.452 155.239 21.8366 155.44 22.1767C155.624 22.4412 155.902 22.625 156.217 22.6903C156.682 22.7905 157.155 22.8522 157.631 22.8747V23.9326H149.488V22.8747C149.953 22.851 150.415 22.7893 150.87 22.6903C151.185 22.6231 151.466 22.4476 151.665 22.1943C151.873 21.8781 151.995 21.5137 152.021 21.1363C152.081 20.5164 152.107 19.8936 152.1 19.2707V15.1357C152.1 12.6731 152.034 11.185 151.911 10.6319C151.862 10.3991 151.784 10.1735 151.678 9.96024C151.585 9.78551 151.439 9.64434 151.261 9.55639C151.035 9.45412 150.793 9.39175 150.546 9.37202C150.174 9.33688 149.8 9.32076 149.426 9.32374V8.33167L154.413 7.15085L154.786 10.2236H154.909C155.659 9.27909 156.602 8.5054 157.674 7.95416C158.743 7.4118 159.926 7.13476 161.125 7.14646C162.017 7.13498 162.903 7.29287 163.737 7.61176C164.442 7.86472 165.066 8.30474 165.541 8.88477C165.917 9.4409 166.164 10.0737 166.265 10.7372C166.432 11.7704 166.505 12.8164 166.485 13.8627V19.0512C166.477 19.7208 166.503 20.3904 166.564 21.0573C166.584 21.4505 166.695 21.8336 166.888 22.1767C167.064 22.4414 167.337 22.6261 167.648 22.6903C168.093 22.7881 168.545 22.8497 169 22.8747V23.9326H160.958V22.8747C161.424 22.872 161.888 22.8145 162.341 22.7035C162.652 22.6312 162.927 22.4507 163.118 22.1943C163.319 21.8695 163.436 21.5 163.46 21.1188C163.508 20.6535 163.535 20.0389 163.535 19.2707V15.1664C163.547 14.1697 163.485 13.1734 163.35 12.1858C163.268 11.5032 163.066 10.8405 162.753 10.228C162.507 9.76213 162.12 9.38581 161.647 9.15254C161.129 8.92371 160.567 8.81276 160.001 8.8277C159.09 8.82445 158.198 9.08186 157.429 9.56956C156.651 10.0593 156.022 10.7532 155.611 11.5756C155.512 11.7679 155.424 11.9658 155.348 12.1682C155.267 12.3778 155.21 12.5957 155.177 12.8179C155.13 13.1014 155.098 13.3871 155.08 13.6739C155.08 13.9943 155.049 14.4026 155.049 14.903V19.0512Z" fill="#061A40"/>
<path d="M58.2793 34.4019C58.2909 34.852 58.2118 35.2999 58.0466 35.7188C57.894 36.101 57.6425 36.4358 57.3179 36.6889C56.9256 36.9817 56.4774 37.1908 56.001 37.3034C55.3652 37.4613 54.7114 37.5351 54.0564 37.5229H52.8273V40.1567C52.8213 40.4331 52.8418 40.7095 52.8888 40.982C52.9164 41.1719 53.0077 41.3468 53.1478 41.478C53.3123 41.612 53.5119 41.6958 53.7228 41.7195C54.05 41.7648 54.3802 41.7854 54.7105 41.7809V42.2989H49.8818V41.7809C50.1415 41.7794 50.4004 41.7514 50.6544 41.6975C50.8193 41.6616 50.9711 41.5811 51.0934 41.4648C51.2114 41.3351 51.2878 41.1731 51.3129 40.9995C51.3523 40.7425 51.3699 40.4826 51.3655 40.2226V33.8575C51.3689 33.5992 51.3527 33.3409 51.3173 33.085C51.2959 32.9161 51.2308 32.7557 51.1285 32.6197C51.0175 32.5009 50.8713 32.4209 50.7115 32.3914C50.4774 32.3408 50.2396 32.31 50.0004 32.2992V31.7812H54.3286C55.3478 31.7205 56.3621 31.9634 57.2433 32.4792C57.5688 32.6814 57.8357 32.9652 58.0174 33.3025C58.1992 33.6398 58.2895 34.0188 58.2793 34.4019V34.4019ZM52.8449 36.8162H53.815C54.53 36.8694 55.2427 36.6858 55.843 36.2938C56.0801 36.0767 56.2634 35.8074 56.3785 35.5072C56.4935 35.2071 56.5371 34.8842 56.5059 34.5643C56.5359 34.2664 56.5046 33.9655 56.414 33.6802C56.3234 33.3948 56.1754 33.131 55.9791 32.905C55.5149 32.5293 54.9238 32.347 54.3286 32.3958H53.0731C53.0416 32.3914 53.0094 32.3944 52.9792 32.4046C52.949 32.4147 52.9215 32.4317 52.899 32.4543C52.8764 32.4768 52.8594 32.5043 52.8493 32.5345C52.8391 32.5647 52.8361 32.5969 52.8405 32.6284L52.8449 36.8162Z" fill="#061A40"/>
<path d="M69.9779 38.4711H66.3301C66.175 38.8457 66.0433 39.1749 65.935 39.4588C65.8253 39.7485 65.7375 39.9943 65.6672 40.205C65.61 40.3791 65.5631 40.5565 65.5268 40.7362C65.5006 40.853 65.4859 40.972 65.4829 41.0917C65.4741 41.1942 65.4936 41.297 65.5393 41.3891C65.585 41.4812 65.655 41.559 65.7419 41.6141C65.9995 41.7289 66.2814 41.7787 66.5627 41.759V42.2769H63.2441V41.759C63.4267 41.7366 63.6072 41.6999 63.7841 41.6492C63.926 41.6082 64.0597 41.5429 64.1791 41.4561C64.299 41.3702 64.4005 41.2613 64.4776 41.1356C64.5759 40.9821 64.6611 40.8206 64.7322 40.6528L68.2835 31.7593H68.8717L71.9708 39.4632C72.1815 39.9724 72.3615 40.3806 72.5195 40.6879C72.635 40.9359 72.7826 41.1676 72.9585 41.3771C73.0855 41.5189 73.2497 41.6223 73.4326 41.6755C73.6302 41.727 73.8341 41.7507 74.0383 41.7458V42.2769H69.5828V41.7458C69.9175 41.7671 70.2531 41.7224 70.5705 41.6141C70.6538 41.5755 70.724 41.5134 70.7723 41.4354C70.8207 41.3574 70.8452 41.2669 70.8427 41.1751C70.8474 41.0903 70.8474 41.0053 70.8427 40.9205C70.8313 40.8363 70.8152 40.7527 70.7944 40.6703C70.7691 40.5658 70.7368 40.4632 70.6978 40.363C70.6583 40.2489 70.6056 40.1128 70.5398 39.9592L69.9779 38.4711ZM66.6198 37.7863H69.7365L68.222 33.7566L66.6198 37.7863Z" fill="#061A40"/>
<path d="M88.2827 34.4018C88.3058 35.0685 88.0698 35.7182 87.6243 36.2147C87.0567 36.7639 86.3205 37.1056 85.5348 37.1849L88.5549 40.8195C88.7705 41.0972 89.0488 41.3198 89.367 41.4692C89.7055 41.6123 90.0611 41.7111 90.4249 41.7633V42.2813H87.7911L84.4418 37.9926C84.3426 37.8593 84.2308 37.7358 84.1081 37.6238C84.0103 37.5365 83.8992 37.4653 83.7789 37.4131C83.6538 37.3584 83.5201 37.3257 83.3838 37.3165C83.2346 37.3165 83.0546 37.2946 82.8439 37.2946V40.1391C82.8401 40.4155 82.8606 40.6916 82.9054 40.9644C82.933 41.1543 83.0243 41.3292 83.1644 41.4604C83.3289 41.5944 83.5285 41.6782 83.7394 41.7018C84.0681 41.7473 84.3997 41.7678 84.7315 41.7633V42.2813H79.9028V41.7633C80.1625 41.762 80.4214 41.734 80.6754 41.6799C80.8403 41.644 80.9921 41.5635 81.1144 41.4472C81.2343 41.3188 81.311 41.1561 81.3339 40.9819C81.3733 40.7249 81.3909 40.465 81.3865 40.2049V33.8399C81.3921 33.5815 81.3759 33.3231 81.3383 33.0673C81.3187 32.898 81.2535 32.7371 81.1495 32.602C81.0328 32.4791 80.8782 32.3987 80.7105 32.3738C80.4766 32.3226 80.2387 32.2918 79.9994 32.2816V31.7636H84.2881C85.3087 31.7031 86.3244 31.9459 87.2072 32.4616C87.5408 32.6623 87.8158 32.9473 88.0046 33.2878C88.1933 33.6283 88.2892 34.0125 88.2827 34.4018V34.4018ZM82.8439 36.5966H83.814C84.5261 36.6497 85.2364 36.4744 85.8421 36.0962C86.0764 35.895 86.2589 35.6405 86.3742 35.354C86.4896 35.0675 86.5344 34.7575 86.5049 34.4501C86.5327 34.1638 86.5001 33.8749 86.4094 33.6019C86.3187 33.329 86.1718 33.0781 85.9781 32.8654C85.5066 32.5096 84.9208 32.3393 84.332 32.3869H83.0766C83.045 32.3826 83.0128 32.3856 82.9826 32.3957C82.9524 32.4059 82.9249 32.4229 82.9024 32.4454C82.8799 32.468 82.8628 32.4954 82.8527 32.5256C82.8426 32.5559 82.8395 32.588 82.8439 32.6196V36.5966Z" fill="#061A40"/>
<path d="M105.903 34.3712H105.341C105.324 34.0362 105.26 33.7053 105.152 33.3879C105.064 33.146 104.912 32.9323 104.713 32.7689C104.506 32.6089 104.264 32.4992 104.007 32.4485C103.675 32.3783 103.336 32.3459 102.997 32.3519C102.659 32.3519 102.391 32.3519 102.185 32.3519C102.026 32.3554 101.868 32.3805 101.715 32.4265C101.633 32.4472 101.558 32.4915 101.5 32.5538C101.467 32.6142 101.45 32.6824 101.452 32.7514V40.0602C101.449 40.3118 101.47 40.563 101.513 40.8108C101.546 41.0015 101.631 41.1793 101.759 41.3244C101.908 41.4698 102.093 41.5729 102.295 41.6229C102.595 41.7024 102.905 41.7423 103.217 41.7414V42.2594H98.063V41.7414C98.3756 41.7419 98.6869 41.7021 98.9892 41.6229C99.1933 41.5751 99.3802 41.4718 99.5292 41.3244C99.6589 41.1805 99.7443 41.0021 99.775 40.8108C99.8186 40.563 99.8392 40.3118 99.8365 40.0602V32.7733C99.8405 32.7041 99.8236 32.6353 99.7882 32.5758C99.7405 32.5143 99.6743 32.4697 99.5994 32.4485C99.4692 32.404 99.3331 32.3789 99.1956 32.3739C99.0244 32.3739 98.7917 32.3739 98.4976 32.3739C98.2035 32.3739 97.8128 32.3739 97.5099 32.4134C97.2303 32.4328 96.9586 32.5154 96.7154 32.6548C96.4799 32.7994 96.2922 33.0101 96.1755 33.2606C96.021 33.6177 95.9461 34.0041 95.956 34.3931H95.4512V31.7856H105.767L105.903 34.3712Z" fill="#061A40"/>
<path d="M121.052 42.4174L114.564 33.8663H114.507V39.7002C114.503 40.0608 114.519 40.4213 114.555 40.7801C114.571 40.9971 114.637 41.2074 114.748 41.3946C114.794 41.4668 114.854 41.5293 114.924 41.5783C114.994 41.6272 115.073 41.6618 115.156 41.6799C115.387 41.7342 115.622 41.7621 115.859 41.7633V42.2813H112.185V41.7633C112.444 41.7609 112.703 41.7315 112.957 41.6756C113.129 41.6285 113.282 41.5305 113.396 41.3946C113.52 41.2247 113.596 41.0245 113.616 40.8152C113.655 40.4772 113.673 40.137 113.668 39.7968V34.2482C113.673 33.9314 113.657 33.6147 113.62 33.3001C113.604 33.0906 113.539 32.8878 113.431 32.7075C113.332 32.5598 113.185 32.4512 113.014 32.4002C112.783 32.3302 112.544 32.2904 112.303 32.2817V31.7637H115.007L120.977 39.7265H121.052V34.3448C121.055 33.9872 121.039 33.6296 121.003 33.2737C120.985 33.0544 120.919 32.8417 120.81 32.6504C120.716 32.5065 120.57 32.4043 120.402 32.3651C120.171 32.3133 119.936 32.2854 119.7 32.2817V31.7637H123.369V32.2817C123.111 32.283 122.853 32.3139 122.601 32.3738C122.429 32.4161 122.275 32.5132 122.162 32.6504C122.041 32.8247 121.967 33.0273 121.947 33.2386C121.904 33.5733 121.885 33.9107 121.89 34.2482V42.4174H121.052Z" fill="#061A40"/>
<path d="M132.878 36.5045C133.292 36.5096 133.706 36.4802 134.116 36.4167C134.395 36.3759 134.663 36.2805 134.906 36.1358C135.098 36.0197 135.251 35.8483 135.345 35.6441C135.433 35.4177 135.477 35.1761 135.472 34.933H135.95V38.6598H135.472C135.477 38.4193 135.438 38.1799 135.358 37.9531C135.276 37.7483 135.134 37.5735 134.95 37.4527C134.707 37.3024 134.437 37.201 134.155 37.1542C133.738 37.0766 133.315 37.0413 132.891 37.0488V40.1216C132.885 40.3733 132.922 40.6242 133.001 40.8634C133.073 41.0589 133.205 41.2264 133.378 41.3419C133.59 41.4789 133.83 41.5673 134.08 41.6009C134.437 41.657 134.799 41.682 135.16 41.6755C135.572 41.6832 135.984 41.6494 136.389 41.5746C136.693 41.5183 136.981 41.4003 137.237 41.2278C137.466 41.0567 137.653 40.8342 137.781 40.5781C137.935 40.2579 138.05 39.9204 138.123 39.5729H138.611L138.404 42.2637H129.941V41.7458C130.201 41.7445 130.46 41.7165 130.714 41.6624C130.879 41.6273 131.031 41.5467 131.152 41.4297C131.272 41.3013 131.349 41.1386 131.372 40.9644C131.413 40.7075 131.432 40.4476 131.429 40.1874V33.8224C131.432 33.564 131.416 33.3058 131.381 33.0498C131.358 32.8806 131.291 32.7202 131.188 32.5845C131.077 32.4647 130.931 32.3845 130.771 32.3563C130.537 32.3051 130.299 32.2742 130.059 32.2641V31.7461H137.961L138.084 34.1516H137.605C137.565 33.8461 137.475 33.5494 137.338 33.2737C137.221 33.0477 137.047 32.8567 136.833 32.7206C136.584 32.5713 136.308 32.4728 136.021 32.4309C135.627 32.3736 135.229 32.3472 134.831 32.3519H133.097C133.066 32.3475 133.033 32.3505 133.003 32.3606C132.973 32.3708 132.945 32.3878 132.923 32.4103C132.9 32.4329 132.883 32.4603 132.873 32.4906C132.863 32.5208 132.86 32.5529 132.864 32.5845L132.878 36.5045Z" fill="#061A40"/>
<path d="M153.667 34.4019C153.689 35.0677 153.455 35.7166 153.013 36.2148C152.445 36.7639 151.709 37.1057 150.923 37.1849L153.939 40.8196C154.155 41.0986 154.435 41.3214 154.756 41.4692C155.094 41.6129 155.45 41.7118 155.814 41.7633V42.2813H153.18L149.835 37.9926C149.734 37.8604 149.623 37.737 149.501 37.6239C149.403 37.5365 149.292 37.4654 149.172 37.4132C149.047 37.3584 148.913 37.3258 148.777 37.3166C148.623 37.3166 148.443 37.2946 148.237 37.2946V40.1392C148.231 40.4156 148.252 40.6919 148.298 40.9644C148.326 41.1543 148.417 41.3292 148.557 41.4604C148.721 41.5936 148.919 41.6774 149.128 41.7019C149.457 41.7471 149.788 41.7676 150.12 41.7633V42.2813H145.292V41.7633C145.55 41.7621 145.807 41.7341 146.06 41.6799C146.225 41.6442 146.377 41.5637 146.499 41.4473C146.617 41.3176 146.693 41.1555 146.718 40.982C146.758 40.7249 146.775 40.465 146.771 40.205V33.84C146.774 33.5816 146.758 33.3233 146.723 33.0674C146.701 32.8985 146.636 32.7381 146.534 32.6021C146.423 32.4833 146.277 32.4033 146.117 32.3738C145.883 32.3233 145.645 32.2924 145.406 32.2816V31.7637H149.694C150.714 31.7029 151.728 31.9458 152.609 32.4616C152.941 32.6626 153.214 32.948 153.4 33.2889C153.586 33.6297 153.678 34.0138 153.667 34.4019ZM148.233 36.5967H149.203C149.915 36.6491 150.625 36.4739 151.231 36.0963C151.464 35.8944 151.646 35.6397 151.761 35.3534C151.877 35.0671 151.922 34.7575 151.894 34.4501C151.921 34.1639 151.889 33.8749 151.798 33.602C151.707 33.3291 151.56 33.0782 151.367 32.8655C150.895 32.5096 150.309 32.3393 149.721 32.387H148.465C148.434 32.3826 148.402 32.3856 148.371 32.3958C148.341 32.4059 148.314 32.4229 148.291 32.4455C148.269 32.468 148.252 32.4955 148.241 32.5257C148.231 32.5559 148.228 32.5881 148.233 32.6196V36.5967Z" fill="#061A40"/>
<path d="M161.674 39.0724H162.179C162.234 39.459 162.356 39.8332 162.539 40.1786C162.71 40.4948 162.938 40.7773 163.21 41.0127C163.484 41.2431 163.798 41.4203 164.136 41.535C164.503 41.6626 164.889 41.725 165.278 41.7194C165.849 41.7515 166.414 41.5839 166.876 41.2453C167.07 41.0873 167.225 40.8858 167.327 40.657C167.429 40.4283 167.476 40.1787 167.464 39.9284C167.466 39.7138 167.427 39.5008 167.35 39.3007C167.259 39.0915 167.126 38.9032 166.959 38.7476C166.739 38.5405 166.492 38.3634 166.226 38.2208C165.851 38.014 165.466 37.8264 165.071 37.659C164.585 37.4527 164.111 37.2167 163.654 36.9522C163.323 36.7633 163.02 36.5299 162.754 36.2587C162.541 36.0321 162.377 35.7648 162.271 35.4729C162.052 34.7808 162.082 34.0342 162.354 33.3615C162.498 33.0135 162.714 32.6995 162.986 32.4396C163.267 32.1767 163.596 31.9723 163.956 31.8383C164.35 31.6944 164.767 31.623 165.186 31.6275C165.567 31.623 165.946 31.6869 166.305 31.8163C166.685 31.966 167.041 32.1733 167.358 32.4309L167.714 31.8163H168.021L168.171 34.5379H167.666C167.513 33.9029 167.182 33.3245 166.713 32.8698C166.301 32.5084 165.769 32.3142 165.221 32.3255C164.747 32.3013 164.281 32.446 163.904 32.7337C163.742 32.8675 163.613 33.037 163.528 33.229C163.442 33.4209 163.403 33.6301 163.412 33.8399C163.408 34.0429 163.446 34.2445 163.522 34.4325C163.602 34.6259 163.724 34.7996 163.877 34.9418C164.072 35.1236 164.287 35.2826 164.518 35.4158C164.834 35.6048 165.163 35.772 165.502 35.9163C166.076 36.1664 166.637 36.4463 167.183 36.7547C167.566 36.9724 167.923 37.2347 168.245 37.5361C168.489 37.7649 168.68 38.0433 168.807 38.3525C168.92 38.6619 168.975 38.9891 168.969 39.3183C168.975 39.7451 168.885 40.1679 168.706 40.5554C168.527 40.9428 168.263 41.2851 167.933 41.557C167.585 41.8415 167.186 42.0575 166.757 42.1935C166.272 42.3468 165.765 42.4224 165.256 42.4174C164.78 42.4258 164.306 42.3515 163.855 42.1979C163.395 42.0266 162.967 41.7771 162.591 41.4604L162.209 42.132H161.876L161.674 39.0724Z" fill="#061A40"/>
<path d="M31.9764 15.0962L29.1143 12.199L24.334 16.9793L27.218 19.8941L31.9764 15.0962Z" fill="#061A40"/>
<path d="M20.1377 4.54336C19.467 4.54474 18.8117 4.7446 18.2544 5.11775C17.6971 5.4909 17.2627 6.02066 17.0059 6.64026C16.7491 7.25987 16.6815 7.94161 16.8115 8.59959C16.9415 9.25756 17.2634 9.86234 17.7365 10.3377L23.0041 15.6624L27.8064 10.8864L22.5388 5.53981C22.2248 5.22267 21.8507 4.97122 21.4384 4.80014C21.0262 4.62906 20.584 4.54177 20.1377 4.54336V4.54336Z" fill="#061A40"/>
<path d="M30.4222 10.8864L34.5748 15.1049L28.5215 21.2153L34.5748 27.3258L30.3783 31.5706L35.6108 36.7855C37.7574 34.803 39.471 32.3981 40.644 29.722C41.8171 27.0458 42.4244 24.156 42.4277 21.234C42.431 18.312 41.8302 15.4208 40.6632 12.742C39.4962 10.0632 37.788 7.65448 35.6459 5.66711L30.4222 10.8864Z" fill="#061A40"/>
<path d="M20.84 22.0142L22.9822 24.1564L25.9057 21.2065L23.0129 18.2961L21.8277 19.4814C21.2438 20.0652 20.6688 20.6622 20.0938 21.2372C20.3396 21.5094 20.5854 21.764 20.84 22.0142Z" fill="#061A40"/>
<path d="M16.7441 34.4809C16.7464 35.1507 16.9465 35.8049 17.3195 36.3612C17.6924 36.9176 18.2215 37.3514 18.8402 37.6079C19.4589 37.8645 20.1396 37.9325 20.7969 37.8033C21.4541 37.6742 22.0585 37.3537 22.5341 36.882L27.7754 31.5749L22.9906 26.7902L17.723 32.0578C17.4058 32.3754 17.1557 32.7536 16.9875 33.1699C16.8193 33.5862 16.7366 34.032 16.7441 34.4809Z" fill="#061A40"/>
<path d="M29.088 32.8874L23.8511 38.1945C22.8434 39.0575 21.5472 39.5084 20.2214 39.4572C18.8957 39.406 17.6381 38.8564 16.7 37.9183C15.7618 36.9802 15.2123 35.7226 15.1611 34.3968C15.1098 33.0711 15.5608 31.7749 16.4238 30.7672L21.6694 25.4732L19.5229 23.3223C19.2814 23.0853 19.04 22.835 18.7986 22.5936C18.4123 22.9887 18.0128 23.3881 17.6221 23.7788C17.4992 23.893 17.3851 24.0159 17.2666 24.1344L17.2139 24.1871C16.1692 25.2494 14.9752 26.4609 13.1139 26.4609C12.0728 26.46 11.0552 26.1506 10.1898 25.5717C9.32444 24.9928 8.65 24.1705 8.25169 23.2085C7.85337 22.2465 7.74907 21.1881 7.95194 20.1669C8.1548 19.1457 8.65575 18.2075 9.3915 17.4709C9.87663 16.982 10.4548 16.5953 11.0919 16.3337C11.729 16.0721 12.4121 15.9408 13.1008 15.9476C15.0191 15.9476 16.2657 17.2645 17.3588 18.419L18.7986 19.9159C19.3692 19.3321 19.9399 18.7439 20.5149 18.16L21.7089 16.9748L16.4413 11.6458C15.5995 10.6369 15.1651 9.34975 15.2235 8.03705C15.2818 6.72436 15.8287 5.48087 16.7567 4.55064C17.6848 3.6204 18.9269 3.07061 20.2395 3.00914C21.5521 2.94768 22.8402 3.379 23.8511 4.21844L29.1231 9.56945L34.2283 4.46426C31.0954 2.029 27.3421 0.521398 23.3951 0.112775C19.4482 -0.295848 15.4657 0.410899 11.9003 2.1527C8.33496 3.8945 5.32968 6.6015 3.22603 9.96607C1.12237 13.3306 0.00469101 17.2178 1.47343e-05 21.1859C-0.00466154 25.154 1.10385 29.0438 3.19957 32.4133C5.29529 35.7828 8.29418 38.4969 11.8554 40.2471C15.4167 41.9973 19.3975 42.7135 23.3454 42.3141C27.2933 41.9148 31.0501 40.4161 34.1888 37.9882L29.088 32.8874Z" fill="#061A40"/>
<path d="M13.0874 17.8089C12.6451 17.8061 12.2066 17.8912 11.7974 18.0593C11.3883 18.2273 11.0165 18.475 10.7038 18.7878C10.2252 19.2617 9.89822 19.8672 9.76445 20.5274C9.63069 21.1875 9.69616 21.8725 9.95255 22.4954C10.2089 23.1183 10.6447 23.6509 11.2044 24.0255C11.7642 24.4002 12.4226 24.6001 13.0962 24.5997C14.198 24.5997 14.9838 23.8008 15.8968 22.8746L15.9231 22.8439L16.3138 22.4532C16.7133 22.0581 17.1127 21.6586 17.5078 21.2548L16.0153 19.7052C15.054 18.6912 14.2156 17.8177 13.0874 17.8089Z" fill="#061A40"/>
<path d="M31.9764 27.3214L27.218 22.5322L24.2944 25.4733L29.0792 30.2493L31.9764 27.3214Z" fill="#061A40"/>
</svg>
