<?xml version="1.0" encoding="UTF-8" standalone="no"?>
<svg
   xmlns:dc="http://purl.org/dc/elements/1.1/"
   xmlns:cc="http://creativecommons.org/ns#"
   xmlns:rdf="http://www.w3.org/1999/02/22-rdf-syntax-ns#"
   xmlns:svg="http://www.w3.org/2000/svg"
   xmlns="http://www.w3.org/2000/svg"
   xmlns:sodipodi="http://sodipodi.sourceforge.net/DTD/sodipodi-0.dtd"
   xmlns:inkscape="http://www.inkscape.org/namespaces/inkscape"
   width="202.68407mm"
   height="36.099751mm"
   viewBox="0 0 202.68407 36.099751"
   version="1.1"
   id="svg8"
   inkscape:version="1.0 (4035a4fb49, 2020-05-01)"
   sodipodi:docname="logo-footer.svg">
  <defs
     id="defs2" />
  <sodipodi:namedview
     id="base"
     pagecolor="#ffffff"
     bordercolor="#666666"
     borderopacity="1.0"
     inkscape:pageopacity="0.0"
     inkscape:pageshadow="2"
     inkscape:zoom="0.35"
     inkscape:cx="363.025"
     inkscape:cy="276.79143"
     inkscape:document-units="mm"
     inkscape:current-layer="layer1"
     inkscape:document-rotation="0"
     showgrid="false"
     inkscape:window-width="1741"
     inkscape:window-height="1228"
     inkscape:window-x="190"
     inkscape:window-y="160"
     inkscape:window-maximized="0" />
  <metadata
     id="metadata5">
    <rdf:RDF>
      <cc:Work
         rdf:about="">
        <dc:format>image/svg+xml</dc:format>
        <dc:type
           rdf:resource="http://purl.org/dc/dcmitype/StillImage" />
        <dc:title></dc:title>
      </cc:Work>
    </rdf:RDF>
  </metadata>
  <g
     inkscape:label="Layer 1"
     inkscape:groupmode="layer"
     id="layer1"
     transform="translate(-9.7829701,-74.932268)">
    <g
       style="fill:#ffffff;fill-opacity:1"
       id="g853"
       transform="matrix(0.26458333,0,0,0.26458333,-6.1131964,69.122018)">
      <path
         style="fill:#ffffff;fill-opacity:1"
         id="path835"
         d="m 159.42,36.96 c 0.01,0 0.01,0 0,0 0.01,0 0.01,0 0,0 z M 96.88,37.14 Z M 73.63,96.76 c 0.61,5.12 1.93,10.1 3.94,14.85 2.77,6.55 6.74,12.44 11.8,17.5 5.06,5.06 10.95,9.03 17.5,11.8 4.75,2.01 9.74,3.33 14.85,3.93 V 96.76 Z m 81.69,48.85 z M 128.3,158.4 c -9.16,0 -18.05,-1.79 -26.43,-5.31 C 93.78,149.68 86.51,144.81 80.25,138.6 74,132.4 69.07,125.16 65.6,117.1 62.01,108.75 60.16,99.89 60.08,90.74 v -0.12 c 0,-0.15 0,-0.3 0,-0.45 0,-9.2 1.8,-18.14 5.36,-26.55 3.44,-8.12 8.35,-15.42 14.62,-21.68 6.26,-6.27 13.56,-11.19 21.68,-14.62 8.41,-3.56 17.35,-5.36 26.55,-5.36 9.2,0 18.14,1.8 26.55,5.36 8.12,3.43 15.42,8.35 21.68,14.62 6.26,6.26 11.18,13.55 14.62,21.68 3.56,8.41 5.36,17.35 5.36,26.55 0,9.21 -1.8,18.14 -5.36,26.56 -3.44,8.12 -8.35,15.41 -14.62,21.68 -6.26,6.27 -13.56,11.18 -21.68,14.62 -8.4,3.57 -17.33,5.37 -26.54,5.37 z"
         class="st0" />
      <path
         style="fill:#ffffff;fill-opacity:1"
         id="path837"
         d="m 336.26,124.07 h -11.3 V 79.81 c 0,-8.91 -5.85,-15.56 -14.89,-15.56 -9.04,0 -14.89,6.65 -14.89,15.56 v 44.26 h -11.3 V 79.81 c 0,-8.91 -5.85,-15.56 -14.89,-15.56 -9.04,0 -14.89,6.65 -14.89,15.56 v 44.26 H 242.8 V 80.21 c 0,-14.89 10.77,-26.32 26.19,-26.32 9.3,0 16.48,4.39 20.47,11.3 4.12,-6.91 11.3,-11.3 20.6,-11.3 15.55,0 26.19,11.43 26.19,26.32 v 43.86 z"
         class="st0" />
      <path
         style="fill:#ffffff;fill-opacity:1"
         id="path839"
         d="m 399.41,90.04 c 0,-13.96 -10.37,-25.39 -23.13,-25.39 -12.63,0 -22.99,11.44 -22.99,25.39 0,13.69 10.37,24.85 22.99,24.85 12.76,0.01 23.13,-11.15 23.13,-24.85 z m 11.29,0 c 0,19.67 -14.89,35.75 -34.43,35.75 -19.4,0 -34.43,-16.08 -34.43,-35.75 0,-19.94 15.02,-36.16 34.43,-36.16 19.54,0.01 34.43,16.23 34.43,36.16 z"
         class="st0" />
      <path
         style="fill:#ffffff;fill-opacity:1"
         id="path841"
         d="m 427.46,124.07 h -11.17 v -41.6 c 0,-17.28 12.23,-28.58 28.58,-28.58 16.35,0 28.45,11.3 28.45,28.58 v 41.61 h -11.17 v -42 c 0,-10.24 -6.78,-17.68 -17.28,-17.68 -10.63,0 -17.41,7.44 -17.41,17.68 z"
         class="st0" />
      <path
         style="fill:#ffffff;fill-opacity:1"
         id="path843"
         d="m 490.46,94.43 42.27,-17.81 c -4.25,-7.44 -11.83,-12.1 -19.54,-12.1 -10.9,0 -23.13,9.57 -23.13,25.26 0,1.73 0.13,3.19 0.4,4.65 z m 55.96,8.37 c -5.32,14.62 -16.75,22.86 -32.57,22.86 -19.67,0 -35.09,-15.68 -35.09,-35.76 0,-19.8 15.42,-36.02 34.43,-36.02 14.89,0 29.38,10.37 33.37,28.18 l -52.51,22.19 c 4.39,6.92 11.96,10.77 19.81,10.77 9.7,0 16.48,-4.25 20.87,-12.23 h 11.69 z"
         class="st0" />
      <path
         style="fill:#ffffff;fill-opacity:1"
         id="path845"
         d="m 612.09,55.62 v 73.5 c 0,17.94 -12.5,28.58 -28.58,28.58 -14.36,0 -25.52,-8.5 -28.18,-22.6 h 11.43 c 2.39,7.31 7.98,11.7 16.75,11.7 10.5,0 17.28,-7.18 17.28,-17.68 v -10.23 c -4.12,4.38 -9.84,6.78 -17.28,6.78 -16.08,0 -28.58,-11.3 -28.58,-28.58 V 55.62 h 11.16 v 41.47 c 0,10.23 6.78,17.68 17.41,17.68 10.5,0 17.28,-7.44 17.28,-17.68 V 55.62 Z"
         class="st0" />
      <path
         style="fill:#ffffff;fill-opacity:1"
         id="path847"
         d="m 651.51,100.94 h 7.81 c 1.02,7.9 4.18,14.6 17.58,14.6 8.55,0 15.16,-5.02 15.16,-12.55 0,-7.53 -3.44,-10.7 -16.09,-12.74 -13.95,-2.14 -22.22,-6.51 -22.22,-18.32 0,-10.23 8.84,-18.04 21.39,-18.04 13.3,0 21.57,6.51 22.88,18.32 h -7.25 c -1.58,-8.37 -6.41,-11.81 -15.62,-11.81 -9.11,0 -13.85,4.55 -13.85,10.78 0,6.51 2.42,9.86 15.99,11.9 14.78,2.33 22.6,6.79 22.6,19.35 0,11.16 -9.76,19.62 -22.97,19.62 -17.79,0 -24.2,-9.76 -25.41,-21.11 z"
         class="st0" />
      <path
         style="fill:#ffffff;fill-opacity:1"
         id="path849"
         d="m 763.55,88.11 v -0.75 c 0,-14.87 -8.74,-26.96 -24.08,-26.96 -15.44,0 -24.36,11.34 -24.36,27.15 v 0.75 c 0,16.09 10.7,27.06 24.55,27.06 14.78,-0.01 23.89,-11.17 23.89,-27.25 z m -56.81,0.27 v -0.74 c 0,-18.88 13.2,-33.75 32.73,-33.75 19.53,0 32.45,14.88 32.45,33.57 v 0.74 c 0,18.79 -12.92,33.85 -32.27,33.85 -19.62,0 -32.91,-15.06 -32.91,-33.67 z"
         class="st0" />
      <path
         style="fill:#ffffff;fill-opacity:1"
         id="path851"
         d="m 777.77,100.94 h 7.81 c 1.02,7.9 4.18,14.6 17.58,14.6 8.56,0 15.16,-5.02 15.16,-12.55 0,-7.53 -3.44,-10.7 -16.09,-12.74 C 788.27,88.11 780,83.74 780,71.93 c 0,-10.23 8.83,-18.04 21.38,-18.04 13.3,0 21.57,6.51 22.88,18.32 h -7.25 c -1.58,-8.37 -6.42,-11.81 -15.62,-11.81 -9.11,0 -13.85,4.55 -13.85,10.78 0,6.51 2.41,9.86 15.99,11.9 14.79,2.33 22.6,6.79 22.6,19.35 0,11.16 -9.76,19.62 -22.97,19.62 -17.77,0 -24.19,-9.76 -25.39,-21.11 z"
         class="st0" />
    </g>
  </g>
  <style
     id="style833"
     type="text/css">
	.st0{fill:#FFFFFF;}
</style>
</svg>
