<?xml version="1.0" encoding="UTF-8"?> <svg xmlns="http://www.w3.org/2000/svg" width="154.573" height="21.734" viewBox="0 0 154.573 21.734"><defs><style>.a{fill:#383838;}</style></defs><g transform="translate(0 -0.8)"><path class="a" d="M9.651,9.588c-.235,1.02-.785,1.1-1.255,1.1H7.14L8.866,4.252h1.883c.078,0,.314.078.157.863Zm3.845.471,1.412-5.1c.706-2.746-.471-3.688-1.569-4L12,.8h-6.2L0,22.377H4L6.277,14.06H7.14l-.314,8.317h3.766l.235-8.788A4.761,4.761,0,0,0,13.5,10.059"></path><path class="a" d="M25.425,18.062c-.157.628-.471.863-1.02.863H22.914l-.392-.078-.157-.549L25.9,5.115a1.035,1.035,0,0,1,1.1-.863h1.412l.392.078.157.549ZM31.231.957,29.819.8H26.994a4.749,4.749,0,0,0-4.943,3.923L18.441,18.3c-.706,2.668.471,3.609,1.648,3.923l1.491.157h2.746a4.837,4.837,0,0,0,5.022-3.845L33.036,4.959c.628-2.668-.628-3.688-1.8-4" transform="translate(-3.926)"></path><path class="a" d="M43.546,18.062c-.157.628-.471.863-1.02.863H40.643l-.157-.549L44.017,5.194a1.066,1.066,0,0,1,1.177-.863h1.412L47,4.409l.078.471ZM49.431.957,48.019.8H45.194a4.749,4.749,0,0,0-4.943,3.923L36.641,18.3c-.706,2.668.471,3.609,1.648,3.923l1.491.157h2.746a4.837,4.837,0,0,0,5.022-3.845L51.236,4.959c.549-2.668-.706-3.688-1.8-4" transform="translate(-7.845)"></path><path class="a" d="M65.675,12.413l-.549-.863a5.991,5.991,0,0,0-1.177-.785L61.516,9.353l-.549-.392.078-.392.942-3.452a.976.976,0,0,1,1.1-.863h.471l.314.078.157.549L63.4,7.312h4l.628-2.354c.706-2.668-.471-3.688-1.648-4L64.969.8H63.085a4.749,4.749,0,0,0-4.943,3.923l-1.1,4.237a3.557,3.557,0,0,0-.157,1.491l.549,1.1a5.691,5.691,0,0,0,1.177.863L61.045,13.9l.549.392-.078.392-.942,3.531a1.01,1.01,0,0,1-1.02.863h-.549L58.613,19l-.157-.549.471-1.726h-4l-.392,1.412c-.785,2.9.471,3.923,1.648,4.237l1.334.157h1.8a4.766,4.766,0,0,0,5.022-3.845L65.518,14.3a3.336,3.336,0,0,0,.157-1.883" transform="translate(-11.692 0)"></path><path class="a" d="M84.833.8H75.182L74.24,4.331h2.825L72.2,22.456h4L81.066,4.331h2.825Z" transform="translate(-15.549)"></path><path class="a" d="M89.043,18.925l1.569-5.885h3.845L95.4,9.588H91.554l1.412-5.257H97.36L98.3.8h-8.4L84.1,22.456h8.317l.942-3.531Z" transform="translate(-18.112)"></path><path class="a" d="M108.129,9.666c-.235,1.02-.785,1.1-1.255,1.1h-1.255l1.726-6.434h1.883c.078,0,.314.078.157.863Zm3.845.392,1.334-5.1c.706-2.746-.471-3.688-1.569-4L110.4.8h-6.2L98.4,22.456h4l2.275-8.317h.863l-.314,8.317h3.766l.235-8.788a4.8,4.8,0,0,0,2.746-3.609" transform="translate(-21.192 0)"></path><path class="a" d="M131.283,11.493l1.962-7.14h1.334l.392.078.078.471-1.569,5.728a1.01,1.01,0,0,1-1.02.863Zm6.042-10.436L135.913.9h-5.806L124.3,22.556h4l2.04-7.454h2.118a4.7,4.7,0,0,0,4.943-3.845l1.648-6.12c.706-2.825-.549-3.766-1.726-4.08" transform="translate(-26.77 -0.022)"></path><path class="a" d="M153.853.9l-4.629,17.183c-.235.863-.706,1.02-1.1,1.02h-1.491c-.078,0-.314-.078-.157-.706L151.185.978h-4l-4.551,17.027c-.785,2.982.471,4.08,1.648,4.394l1.334.157h2.511c2.589,0,4.315-1.412,5.1-4.237L157.855.978Z" transform="translate(-30.666 -0.022)"></path><path class="a" d="M171.2.9l-1.962,7.3L168.851.9h-3.845L159.2,22.477h4l2.982-10.985.392,6.356L165.4,22.477h3.923L175.128.9Z" transform="translate(-34.286 -0.022)"></path><path class="a" d="M187.685,22.477l-1.255-10.749L192.628.9h-3.845l-4.394,7.689L186.508.9h-4L176.7,22.477h4l2.2-8.239.785,8.239Z" transform="translate(-38.055 -0.022)"></path></g></svg> 